<svg viewBox="0 0 18 22" fill="none" xmlns="http://www.w3.org/2000/svg" width="18" height="22">
<path d="M12 1L12.5303 0.46967L12.3107 0.25H12V1ZM17 6H17.75V5.68934L17.5303 5.46967L17 6ZM12 6H11.25V6.75H12V6ZM7.62404 9.58397C7.39427 9.23933 6.92862 9.1462 6.58397 9.37596C6.23933 9.60573 6.1462 10.0714 6.37596 10.416L7.62404 9.58397ZM10.376 16.416C10.6057 16.7607 11.0714 16.8538 11.416 16.624C11.7607 16.3943 11.8538 15.9286 11.624 15.584L10.376 16.416ZM6.37596 15.584C6.1462 15.9286 6.23933 16.3943 6.58397 16.624C6.92862 16.8538 7.39427 16.7607 7.62404 16.416L6.37596 15.584ZM11.624 10.416C11.8538 10.0714 11.7607 9.60573 11.416 9.37596C11.0714 9.1462 10.6057 9.23933 10.376 9.58397L11.624 10.416ZM1.75 19V3H0.25V19H1.75ZM3 1.75H12V0.25H3V1.75ZM11.4697 1.53033L16.4697 6.53033L17.5303 5.46967L12.5303 0.46967L11.4697 1.53033ZM16.25 6V19H17.75V6H16.25ZM15 20.25H3V21.75H15V20.25ZM17 5.25H12V6.75H17V5.25ZM12.75 6V1H11.25V6H12.75ZM6.37596 10.416L10.376 16.416L11.624 15.584L7.62404 9.58397L6.37596 10.416ZM7.62404 16.416L11.624 10.416L10.376 9.58397L6.37596 15.584L7.62404 16.416ZM16.25 19C16.25 19.6904 15.6904 20.25 15 20.25V21.75C16.5188 21.75 17.75 20.5188 17.75 19H16.25ZM1.75 3C1.75 2.30964 2.30964 1.75 3 1.75V0.25C1.48122 0.25 0.25 1.48122 0.25 3H1.75ZM0.25 19C0.25 20.5188 1.48122 21.75 3 21.75V20.25C2.30964 20.25 1.75 19.6904 1.75 19H0.25Z" fill="currentColor"/>
</svg>
