<svg width="16" height="16" viewBox="0 0 16 16" fill="none" xmlns="http://www.w3.org/2000/svg">
<path fill-rule="evenodd" clip-rule="evenodd" d="M12.5399 13.914C11.2236 14.9373 9.5696 15.5466 7.77328 15.5466C3.48022 15.5466 0 12.0663 0 7.77328C0 3.48022 3.48022 0 7.77328 0C12.0663 0 15.5466 3.48022 15.5466 7.77328C15.5466 9.5696 14.9373 11.2236 13.914 12.5399L15.7154 14.3413C16.0949 14.7207 16.0949 15.336 15.7154 15.7154C15.336 16.0949 14.7207 16.0949 14.3413 15.7154L12.5399 13.914ZM13.6032 7.77328C13.6032 10.9931 10.9931 13.6032 7.77328 13.6032C4.55348 13.6032 1.94332 10.9931 1.94332 7.77328C1.94332 4.55348 4.55348 1.94332 7.77328 1.94332C10.9931 1.94332 13.6032 4.55348 13.6032 7.77328Z" fill="#5A5A5A"/>
</svg>
