<svg width="16" height="16" viewBox="0 0 16 16" fill="none" stroke="currentColor" xmlns="http://www.w3.org/2000/svg">
<path d="M8.21167 5.91668C7.76978 5.87426 7.32521 5.96564 6.93882 6.17831C6.55242 6.39097 6.2431 6.71453 6.0532 7.10468C5.86329 7.49483 5.8021 7.9325 5.87798 8.35777C5.95386 8.78303 6.16312 9.17511 6.4771 9.4803C6.79108 9.7855 7.19443 9.98891 7.63194 10.0627C8.06944 10.1364 8.5197 10.0769 8.92108 9.89235C9.32246 9.70776 9.65533 9.40709 9.87411 9.0315C10.0929 8.65592 10.1869 8.22378 10.1433 7.79425C10.0935 7.31275 9.87402 6.86277 9.52199 6.52059C9.16995 6.1784 8.70703 5.96504 8.21167 5.91668V5.91668ZM13.3974 8C13.396 8.22755 13.3788 8.45475 13.3459 8.68005L14.8673 9.83995C14.9335 9.89333 14.9782 9.96781 14.9933 10.0502C15.0083 10.1325 14.9929 10.2174 14.9497 10.2897L13.5104 12.7103C13.4667 12.7819 13.3984 12.8363 13.3175 12.8637C13.2366 12.8912 13.1484 12.89 13.0683 12.8604L11.5573 12.269C11.474 12.2368 11.3837 12.2251 11.2946 12.2351C11.2055 12.2451 11.1204 12.2764 11.0468 12.3263C10.8162 12.4806 10.5739 12.6177 10.322 12.7364C10.2427 12.7739 10.1742 12.8297 10.1225 12.8989C10.0707 12.9682 10.0373 13.0488 10.0251 13.1336L9.79868 14.7C9.7838 14.7828 9.73983 14.8579 9.67428 14.9126C9.60872 14.9673 9.52566 14.9982 9.43928 15H6.56072C6.47577 14.9986 6.39385 14.9691 6.32846 14.9163C6.26307 14.8636 6.21811 14.7908 6.20099 14.7099L5.97485 13.1457C5.96215 13.0599 5.92786 12.9786 5.87502 12.9089C5.82218 12.8391 5.75244 12.7832 5.67199 12.7459C5.42034 12.6279 5.17885 12.4904 4.94982 12.3348C4.8765 12.2852 4.79162 12.2541 4.70286 12.2443C4.61409 12.2346 4.52423 12.2464 4.44135 12.2788L2.93073 12.8699C2.85068 12.8995 2.76243 12.9008 2.68154 12.8734C2.60065 12.8459 2.53231 12.7917 2.48855 12.7201L1.04927 10.2995C1.006 10.2272 0.990538 10.1423 1.00564 10.06C1.02073 9.97759 1.06541 9.90311 1.13172 9.84977L2.41755 8.86846C2.48799 8.8141 2.54335 8.74351 2.57861 8.66308C2.61387 8.58265 2.62791 8.49494 2.61945 8.4079C2.60734 8.2715 2.59994 8.13542 2.59994 7.99902C2.59994 7.86262 2.607 7.7285 2.61945 7.59505C2.62699 7.50854 2.61226 7.42157 2.5766 7.34197C2.54094 7.26237 2.48547 7.19264 2.41519 7.13907L1.13004 6.15776C1.06481 6.10414 1.02107 6.02992 1.00649 5.94811C0.991905 5.86629 1.00741 5.7821 1.05028 5.71028L2.48956 3.28972C2.53327 3.21808 2.60159 3.16374 2.68248 3.13627C2.76338 3.1088 2.85165 3.10998 2.93174 3.13958L4.44269 3.73098C4.52602 3.76323 4.61627 3.77488 4.70536 3.76489C4.79446 3.7549 4.87961 3.72358 4.95319 3.67374C5.18379 3.51939 5.4261 3.38226 5.67804 3.26355C5.75725 3.22613 5.82576 3.17033 5.87753 3.10107C5.92929 3.03182 5.96272 2.95124 5.97485 2.86645L6.20133 1.29995C6.2162 1.21722 6.26017 1.14208 6.32572 1.08737C6.39128 1.03266 6.47434 1.00178 6.56072 1H9.43928C9.52423 1.00143 9.60615 1.03094 9.67154 1.08368C9.73693 1.13642 9.78189 1.20924 9.79901 1.29014L10.0251 2.85435C10.0378 2.94007 10.0721 3.02141 10.125 3.09115C10.1778 3.16088 10.2476 3.21685 10.328 3.25407C10.5797 3.37214 10.8212 3.50963 11.0502 3.66523C11.1235 3.71483 11.2084 3.74591 11.2971 3.75567C11.3859 3.76543 11.4758 3.75358 11.5587 3.72117L13.0693 3.13009C13.1493 3.10046 13.2376 3.09924 13.3185 3.12665C13.3993 3.15405 13.4677 3.20833 13.5115 3.27991L14.9507 5.70047C14.994 5.77279 15.0095 5.85768 14.9944 5.94005C14.9793 6.02241 14.9346 6.09689 14.8683 6.15023L13.5825 7.13154C13.5117 7.18572 13.456 7.25624 13.4205 7.33668C13.3849 7.41712 13.3706 7.50492 13.3789 7.5921C13.39 7.72752 13.3974 7.8636 13.3974 8Z" stroke-width="1.5" stroke-linecap="round" stroke-linejoin="round"/>
</svg>