<svg width="22" height="24" viewBox="0 0 22 24" fill="none" xmlns="http://www.w3.org/2000/svg">
<path fill-rule="evenodd" clip-rule="evenodd" d="M0 2.60124C0 1.16627 1.16966 0 2.60881 0H19.3912C20.8303 0 22 1.16627 22 2.60124V13.0348C22 19.0891 17.0748 24 11.0029 24C4.9252 24 0 19.0891 0 13.0348C0 8.87851 0 6.75179 0 2.60124Z" fill="#FEC800"/>
<path fill-rule="evenodd" clip-rule="evenodd" d="M7.3332 15.6333C7.3332 15.0317 7.83155 14.5455 8.42713 14.5455C9.02878 14.5455 9.5332 15.0317 9.5332 15.6333C9.5332 16.235 9.02878 16.7273 8.42713 16.7273C7.82547 16.7273 7.3332 16.235 7.3332 15.6333Z" fill="black"/>
<path fill-rule="evenodd" clip-rule="evenodd" d="M12.4665 15.6333C12.4665 15.0317 12.9648 14.5455 13.5604 14.5455C14.1621 14.5455 14.6665 15.0317 14.6665 15.6333C14.6665 16.235 14.1621 16.7273 13.5604 16.7273C12.9588 16.7273 12.4665 16.235 12.4665 15.6333Z" fill="black"/>
</svg>
