<svg width="30" height="30" viewBox="0 0 30 30" fill="none" xmlns="http://www.w3.org/2000/svg">
<g clip-path="url(#clip0_45_8865)">
<path d="M4.39355 25.6065C10.2514 31.4644 19.7489 31.4644 25.6068 25.6065C31.4646 19.7487 31.4646 10.2512 25.6068 4.39334C19.7489 -1.46452 10.2514 -1.46452 4.39355 4.39334C-1.46431 10.2512 -1.46431 19.7487 4.39355 25.6065Z" fill="white"/>
<path fill-rule="evenodd" clip-rule="evenodd" d="M4.39356 25.6065L25.6068 4.39334C31.4646 10.2512 31.4646 19.7487 25.6068 25.6065C19.7489 31.4644 10.2514 31.4644 4.39356 25.6065Z" fill="#231F20"/>
<path fill-rule="evenodd" clip-rule="evenodd" d="M21.6635 16.911C21.6635 18.9837 19.9832 20.664 17.9105 20.664C16.7364 20.664 15.6881 20.1248 15 19.2805C15.1474 21.9118 17.3278 24 19.996 24C22.7596 24 25 21.7597 25 18.9961C25 16.3275 22.9112 14.1469 20.2794 14C21.124 14.6881 21.6635 15.7366 21.6635 16.911Z" fill="#FEC800"/>
<path fill-rule="evenodd" clip-rule="evenodd" d="M10 4C10.1989 4 10.3897 4.07902 10.5303 4.21967C10.671 4.36032 10.75 4.55109 10.75 4.75V5.5C10.75 5.69891 10.671 5.88968 10.5303 6.03033C10.3897 6.17098 10.1989 6.25 10 6.25C9.80109 6.25 9.61032 6.17098 9.46967 6.03033C9.32902 5.88968 9.25 5.69891 9.25 5.5V4.75C9.25 4.55109 9.32902 4.36032 9.46967 4.21967C9.61032 4.07902 9.80109 4 10 4V4ZM13 10C13 10.7956 12.6839 11.5587 12.1213 12.1213C11.5587 12.6839 10.7956 13 10 13C9.20435 13 8.44129 12.6839 7.87868 12.1213C7.31607 11.5587 7 10.7956 7 10C7 9.20435 7.31607 8.44129 7.87868 7.87868C8.44129 7.31607 9.20435 7 10 7C10.7956 7 11.5587 7.31607 12.1213 7.87868C12.6839 8.44129 13 9.20435 13 10V10ZM12.652 13.7125L13.1823 14.2427C13.3237 14.3794 13.5132 14.455 13.7098 14.4533C13.9064 14.4515 14.0946 14.3727 14.2336 14.2336C14.3727 14.0946 14.4515 13.9064 14.4533 13.7098C14.455 13.5132 14.3794 13.3237 14.2427 13.1823L13.7125 12.652C13.571 12.5154 13.3816 12.4398 13.1849 12.4415C12.9883 12.4432 12.8002 12.5221 12.6611 12.6611C12.5221 12.8002 12.4432 12.9883 12.4415 13.1849C12.4398 13.3816 12.5154 13.571 12.652 13.7125V13.7125ZM14.242 5.75725C14.3826 5.8979 14.4616 6.08863 14.4616 6.2875C14.4616 6.48637 14.3826 6.6771 14.242 6.81775L13.7125 7.348C13.6433 7.41963 13.5606 7.47677 13.4691 7.51608C13.3776 7.55538 13.2791 7.57607 13.1796 7.57694C13.08 7.5778 12.9812 7.55883 12.889 7.52112C12.7969 7.48341 12.7131 7.42772 12.6427 7.3573C12.5723 7.28688 12.5166 7.20314 12.4789 7.11097C12.4412 7.01879 12.4222 6.92003 12.4231 6.82045C12.4239 6.72086 12.4446 6.62245 12.4839 6.53095C12.5232 6.43944 12.5804 6.35669 12.652 6.2875L13.1823 5.75725C13.3229 5.61665 13.5136 5.53766 13.7125 5.53766C13.9114 5.53766 14.1021 5.61665 14.2427 5.75725H14.242ZM15.25 10.75C15.4489 10.75 15.6397 10.671 15.7803 10.5303C15.921 10.3897 16 10.1989 16 10C16 9.80109 15.921 9.61032 15.7803 9.46967C15.6397 9.32902 15.4489 9.25 15.25 9.25H14.5C14.3011 9.25 14.1103 9.32902 13.9697 9.46967C13.829 9.61032 13.75 9.80109 13.75 10C13.75 10.1989 13.829 10.3897 13.9697 10.5303C14.1103 10.671 14.3011 10.75 14.5 10.75H15.25ZM10 13.75C10.1989 13.75 10.3897 13.829 10.5303 13.9697C10.671 14.1103 10.75 14.3011 10.75 14.5V15.25C10.75 15.4489 10.671 15.6397 10.5303 15.7803C10.3897 15.921 10.1989 16 10 16C9.80109 16 9.61032 15.921 9.46967 15.7803C9.32902 15.6397 9.25 15.4489 9.25 15.25V14.5C9.25 14.3011 9.32902 14.1103 9.46967 13.9697C9.61032 13.829 9.80109 13.75 10 13.75V13.75ZM6.2875 7.348C6.35713 7.41768 6.43981 7.47297 6.53081 7.5107C6.62181 7.54843 6.71935 7.56787 6.81786 7.5679C6.91637 7.56794 7.01392 7.54857 7.10495 7.5109C7.19598 7.47323 7.27869 7.41801 7.34837 7.34837C7.41806 7.27874 7.47334 7.19607 7.51107 7.10507C7.5488 7.01407 7.56824 6.91653 7.56828 6.81802C7.56831 6.7195 7.54894 6.62195 7.51128 6.53092C7.47361 6.4399 7.41838 6.35718 7.34875 6.2875L6.81775 5.75725C6.6763 5.62063 6.48685 5.54504 6.2902 5.54674C6.09355 5.54845 5.90544 5.62733 5.76639 5.76639C5.62733 5.90544 5.54845 6.09355 5.54674 6.2902C5.54504 6.48685 5.62063 6.6763 5.75725 6.81775L6.2875 7.348V7.348ZM7.348 13.7125L6.81775 14.2427C6.6763 14.3794 6.48685 14.455 6.2902 14.4533C6.09355 14.4515 5.90544 14.3727 5.76639 14.2336C5.62733 14.0946 5.54845 13.9064 5.54674 13.7098C5.54504 13.5132 5.62063 13.3237 5.75725 13.1823L6.2875 12.652C6.42895 12.5154 6.6184 12.4398 6.81505 12.4415C7.0117 12.4432 7.19981 12.5221 7.33886 12.6611C7.47792 12.8002 7.5568 12.9883 7.55851 13.1849C7.56021 13.3816 7.48462 13.571 7.348 13.7125V13.7125ZM5.5 10.75C5.69891 10.75 5.88968 10.671 6.03033 10.5303C6.17098 10.3897 6.25 10.1989 6.25 10C6.25 9.80109 6.17098 9.61032 6.03033 9.46967C5.88968 9.32902 5.69891 9.25 5.5 9.25H4.75C4.55109 9.25 4.36032 9.32902 4.21967 9.46967C4.07902 9.61032 4 9.80109 4 10C4 10.1989 4.07902 10.3897 4.21967 10.5303C4.36032 10.671 4.55109 10.75 4.75 10.75H5.5Z" fill="#231F20"/>
</g>
</svg>
