<svg width="110" height="14" viewBox="0 0 110 14" fill="none" xmlns="http://www.w3.org/2000/svg">
  <path fill-rule="evenodd" clip-rule="evenodd"
    d="M108.266 11.6581C109.189 11.6581 110 10.9056 110 9.97849C110 9.06455 109.189 8.33857 108.266 8.33857C107.315 8.33857 106.518 9.06455 106.518 9.97849C106.518 10.9056 107.315 11.6581 108.266 11.6581ZM108.266 5.70471C109.189 5.70471 110 4.97921 110 4.0252C110 3.11126 109.189 2.37219 108.266 2.37219C107.315 2.37219 106.518 3.11126 106.518 4.0252C106.518 4.97921 107.315 5.70471 108.266 5.70471ZM54.3041 7.02203C54.3041 9.15867 52.7653 10.7712 50.4993 10.7712C48.2333 10.7712 46.6949 9.15867 46.6949 7.02203C46.6949 4.88509 48.2333 3.25921 50.4993 3.25921C52.7653 3.25921 54.3041 4.88509 54.3041 7.02203ZM43.2122 7.02203C43.2122 11.0265 46.303 13.9965 50.4993 13.9965C54.6956 13.9965 57.7866 11.0132 57.7866 7.02203C57.7866 3.01715 54.6672 0.0334822 50.4993 0.0334822C46.303 0.0334822 43.2122 3.01715 43.2122 7.02203ZM38.9323 13.5128C39.5756 14.1441 40.6523 14.1712 41.31 13.5395C41.9532 12.935 42.0232 11.8866 41.3799 11.2551L37.0018 6.91427L41.2122 2.73483C41.8411 2.10344 41.7854 1.06846 41.1418 0.477112C40.4986 -0.154732 39.4214 -0.127353 38.7917 0.504033L34.4424 4.80413C34.0648 5.181 33.7987 5.2344 33.5192 5.2344C33.0859 5.2344 32.7217 4.95223 32.7217 4.52225V1.64623C32.7217 0.745866 31.9384 0.0201434 31.0012 0.0201434C30.0646 0.0201434 29.281 0.745866 29.281 1.64623V12.3703C29.281 13.2709 30.0646 13.9965 31.0012 13.9965C31.9384 13.9965 32.7217 13.2709 32.7217 12.3703V9.31954C32.7217 8.9033 33.0859 8.62113 33.5192 8.62113C33.7987 8.62113 34.0648 8.6752 34.4424 9.05072L38.9323 13.5128ZM102.293 3.44697C103.244 3.44697 104 2.73483 104 1.83469C104 0.961001 103.244 0.221706 102.293 0.221706H99.6916C95.4394 0.221706 92.4184 3.13819 92.4184 7.04873C92.4184 10.9594 95.4394 13.8753 99.6916 13.8753H102.293C103.244 13.8753 104 13.1631 104 12.2628C104 11.3894 103.244 10.6501 102.293 10.6501H99.5932C97.3277 10.6501 95.8309 9.11843 95.8309 7.04873C95.8309 4.97921 97.3277 3.44697 99.5932 3.44697H102.293ZM86.9351 7.02203C86.9351 9.15867 85.3967 10.7712 83.1312 10.7712C80.8647 10.7712 79.3263 9.15867 79.3263 7.02203C79.3263 4.88509 80.8647 3.25921 83.1312 3.25921C85.3967 3.25921 86.9351 4.88509 86.9351 7.02203ZM75.8438 7.02203C75.8438 11.0265 78.9348 13.9965 83.1312 13.9965C87.3276 13.9965 90.4186 11.0132 90.4186 7.02203C90.4186 3.01715 87.2992 0.0334822 83.1312 0.0334822C78.9348 0.0334822 75.8438 3.01715 75.8438 7.02203ZM7.18905 7.47832L3.1532 0.839978C2.69117 0.0875582 1.71266 -0.18143 0.873279 0.18166C0.0197036 0.651753 -0.245183 1.64624 0.243921 2.43915L5.06784 10.2654C4.48452 10.6368 3.85324 10.7673 3.16709 10.8251C2.22995 10.9056 1.60029 11.5505 1.60029 12.3972C1.60029 13.4053 2.45387 13.9697 3.32134 13.9697C5.27887 13.9697 6.98541 13.0155 8.21614 11.6849C9.33551 10.4754 10.1888 8.94354 10.9859 7.5054L13.8252 2.38553C14.2587 1.59262 13.9933 0.557641 13.1115 0.154515C12.2868 -0.221923 11.2797 0.114246 10.8462 0.89382L7.18905 7.47832ZM19.3366 3.43363V12.3703C19.3366 13.2842 20.1333 13.9965 21.085 13.9965C22.0497 13.9965 22.8328 13.2842 22.8328 12.3703V3.43363H25.4341C26.3858 3.43363 27.1548 2.70791 27.1548 1.79442C27.1548 0.907159 26.3858 0.167864 25.4341 0.167864H16.7206C15.7691 0.167864 14.9999 0.907159 14.9999 1.79442C14.9999 2.70791 15.7691 3.43363 16.7206 3.43363H19.3366ZM60.5287 12.3703C60.5419 13.2709 61.3258 13.9965 62.2619 13.9965C63.1999 13.9965 63.9828 13.2709 63.9828 12.3703V8.64782H69.6476V12.3703C69.6476 13.2709 70.4447 13.9965 71.3817 13.9965C72.3188 13.9965 73.1027 13.2709 73.1027 12.3703V1.64623C73.1027 0.745866 72.3056 0.0201434 71.3675 0.0201434C70.4305 0.0201434 69.6476 0.745866 69.6476 1.64623V5.36847H63.9686V1.64623C63.9686 0.745866 63.1857 0.0201434 62.2487 0.0201434C61.3116 0.0201434 60.5287 0.745866 60.5287 1.64623V12.3703Z"
    fill="#0DB14B" />
</svg>