<svg width="32" height="32" viewBox="0 0 32 32" fill="none" xmlns="http://www.w3.org/2000/svg">
<rect width="32" height="32" rx="16" fill="none"/>
<path fill-rule="evenodd" clip-rule="evenodd" d="M4 16C4 9.37258 9.37258 4 16 4C22.6274 4 28 9.37258 28 16C28 22.6274 22.6274 28 16 28C9.37258 28 4 22.6274 4 16ZM5.63672 16.0003C5.63672 21.724 10.2767 26.3639 16.0004 26.3639C18.749 26.3639 21.385 25.2721 23.3286 23.3285C25.2721 21.3849 26.364 18.7489 26.364 16.0003C26.364 10.2766 21.7241 5.63667 16.0004 5.63667C10.2767 5.63667 5.63672 10.2766 5.63672 16.0003ZM19.2287 11.5926C19.5482 11.2735 20.0657 11.2735 20.3851 11.5926C20.6442 11.8906 20.6534 12.3312 20.4069 12.6398L17.2815 15.9126L20.4069 19.1853C20.62 19.3938 20.7029 19.7017 20.6231 19.9889C20.5434 20.2762 20.3137 20.4974 20.0237 20.5662C19.7336 20.635 19.429 20.5407 19.2287 20.3198L16.1251 17.0907L12.7487 20.3635C12.5403 20.5766 12.2324 20.6594 11.9451 20.5797C11.6578 20.5 11.4367 20.2703 11.3678 19.9802C11.299 19.6901 11.3934 19.3856 11.6142 19.1853L14.9687 15.9562L11.6142 12.7271C11.3934 12.5268 11.299 12.2223 11.3678 11.9322C11.4367 11.6421 11.6578 11.4124 11.9451 11.3327C12.2324 11.253 12.5403 11.3358 12.7487 11.5489L16.1251 14.8217L19.2287 11.5926Z" fill="currentColor"/>
</svg>
