<svg width="16" height="16" viewBox="0 0 16 16" fill="none" xmlns="http://www.w3.org/2000/svg">
  <circle cx="8" cy="8" r="8" fill="#E67684" />
  <path
    d="M7.36741 9.569C7.29408 9.569 7.22808 9.54333 7.16941 9.492C7.11808 9.43333 7.09241 9.36733 7.09241 9.294V4.575C7.09241 4.49433 7.11808 4.42833 7.16941 4.377C7.22808 4.32567 7.29408 4.3 7.36741 4.3H8.63241C8.71308 4.3 8.77908 4.32567 8.83041 4.377C8.88175 4.42833 8.90741 4.49433 8.90741 4.575V9.294C8.90741 9.36733 8.88175 9.43333 8.83041 9.492C8.77908 9.54333 8.71308 9.569 8.63241 9.569H7.36741ZM7.32341 12C7.24275 12 7.17675 11.9743 7.12541 11.923C7.07408 11.8717 7.04841 11.8057 7.04841 11.725V10.372C7.04841 10.2913 7.07408 10.2253 7.12541 10.174C7.17675 10.1153 7.24275 10.086 7.32341 10.086H8.67641C8.74975 10.086 8.81208 10.1153 8.86341 10.174C8.92208 10.2253 8.95141 10.2913 8.95141 10.372V11.725C8.95141 11.7983 8.92575 11.8643 8.87441 11.923C8.82308 11.9743 8.75708 12 8.67641 12H7.32341Z"
    fill="white" />
</svg>