<svg width="22" height="24" viewBox="0 0 22 24" fill="none" xmlns="http://www.w3.org/2000/svg">
<path d="M19.8956 15.6475L19.8961 15.6478C20.3142 15.9178 20.6564 16.2861 20.8925 16.7186C21.1286 17.151 21.2513 17.6343 21.25 18.1246V18.1266V21.9083C21.2155 21.9221 21.1789 21.9366 21.1402 21.9516C20.7768 22.0929 20.2325 22.2843 19.5263 22.4768C18.1136 22.8617 16.0552 23.25 13.4997 23.25C10.9441 23.25 8.88586 22.8617 7.47337 22.4768C6.76722 22.2843 6.22308 22.0929 5.8597 21.9516C5.82217 21.937 5.78656 21.9229 5.75292 21.9095L5.77528 18.1263H5.7753L5.77529 18.1206C5.77446 17.631 5.89733 17.1485 6.13332 16.7168C6.36933 16.285 6.71125 15.9174 7.12884 15.6479L7.12942 15.6475L10.365 13.555L10.9524 13.1752L10.6144 12.5628L9.35717 10.285C9.11468 9.82918 8.98941 9.32202 8.99189 8.80798L8.9919 8.80798V8.80436V5.20532C8.9919 2.7566 11.0073 0.750307 13.4991 0.75C14.699 0.751954 15.8475 1.22421 16.693 2.06042C17.5383 2.89647 18.0119 4.02786 18.0128 5.20588L18.0128 8.80339C18.0128 8.80362 18.0128 8.80385 18.0128 8.80408C18.012 9.31982 17.885 9.82809 17.642 10.2856L16.3917 12.5509L16.0537 13.1633L16.6411 13.5431L19.8956 15.6475Z" stroke="currentColor" stroke-width="1.5"/>
<path d="M9 3.75C9.41421 3.75 9.75 3.41421 9.75 3C9.75 2.58579 9.41421 2.25 9 2.25V3.75ZM3.81649 10.337L4.56649 10.3407V10.337H3.81649ZM4.21265 11.8689L3.55728 12.2337L3.56259 12.2429L4.21265 11.8689ZM5.3072 13.771L5.70255 14.4083L6.31915 14.0259L5.95726 13.397L5.3072 13.771ZM2.49616 15.5148L2.89093 16.1525L2.89151 16.1521L2.49616 15.5148ZM1.02197 18.1016L1.77198 18.1062L1.77197 18.1002L1.02197 18.1016ZM1 21.6673L0.250014 21.6627L0.246956 22.159L0.70256 22.3558L1 21.6673ZM7.5 23.25C7.91421 23.25 8.25 22.9142 8.25 22.5C8.25 22.0858 7.91421 21.75 7.5 21.75V23.25ZM9 2.25C7.02685 2.25 5.52355 2.77126 4.50954 3.72587C3.49152 4.68425 3.06649 5.98549 3.06649 7.33776H4.56649C4.56649 6.29822 4.88707 5.43057 5.53773 4.81803C6.19239 4.20171 7.28084 3.75 9 3.75V2.25ZM3.06649 7.33776V10.337H4.56649V7.33776H3.06649ZM3.0665 10.3332C3.06316 10.9975 3.23265 11.6504 3.55735 12.2337L4.86795 11.5041C4.66709 11.1432 4.56446 10.7439 4.56648 10.3407L3.0665 10.3332ZM3.56259 12.2429L4.65714 14.1451L5.95726 13.397L4.86271 11.4948L3.56259 12.2429ZM4.91185 13.1337L2.1008 14.8774L2.89151 16.1521L5.70255 14.4083L4.91185 13.1337ZM2.10138 14.8771C1.54424 15.222 1.08236 15.6961 0.761248 16.2595L2.06448 17.0022C2.25824 16.6622 2.54108 16.369 2.89093 16.1525L2.10138 14.8771ZM0.761248 16.2595C0.439972 16.8233 0.270833 17.4571 0.271973 18.1029L1.77197 18.1002C1.7713 17.7192 1.87088 17.3419 2.06448 17.0022L0.761248 16.2595ZM0.271986 18.0969L0.250014 21.6627L1.74999 21.6719L1.77196 18.1062L0.271986 18.0969ZM1 21.6673C0.70256 22.3558 0.702858 22.3559 0.703163 22.3561C0.703275 22.3561 0.703587 22.3562 0.70381 22.3563C0.704257 22.3565 0.704733 22.3567 0.705238 22.3569C0.706249 22.3574 0.707379 22.3579 0.708627 22.3584C0.711124 22.3594 0.714096 22.3607 0.717546 22.3621C0.724447 22.365 0.73326 22.3686 0.744007 22.3729C0.765502 22.3815 0.794727 22.3929 0.831858 22.4066C0.906123 22.434 1.01198 22.4709 1.1508 22.5139C1.42849 22.5998 1.83784 22.7103 2.38992 22.8194C3.49421 23.0376 5.16806 23.25 7.5 23.25V21.75C5.25945 21.75 3.6833 21.546 2.68072 21.3479C2.17935 21.2488 1.82104 21.1511 1.59443 21.081C1.48111 21.0459 1.40066 21.0176 1.35165 20.9995C1.32714 20.9905 1.31049 20.984 1.30152 20.9804C1.29703 20.9786 1.29446 20.9775 1.29379 20.9772C1.29346 20.9771 1.29359 20.9771 1.2942 20.9774C1.29451 20.9775 1.29493 20.9777 1.29547 20.9779C1.29574 20.9781 1.29604 20.9782 1.29637 20.9783C1.29653 20.9784 1.2968 20.9785 1.29688 20.9786C1.29716 20.9787 1.29744 20.9788 1 21.6673Z" fill="currentColor"/>
</svg>
