<svg width="17" height="24" viewBox="0 0 17 24" fill="none" xmlns="http://www.w3.org/2000/svg">
<path d="M14.8956 15.6475L14.8961 15.6478C15.3142 15.9178 15.6564 16.2861 15.8925 16.7186C16.1286 17.151 16.2513 17.6343 16.25 18.1246V18.1266V21.9083C16.2155 21.9221 16.1789 21.9366 16.1402 21.9516C15.7768 22.0929 15.2325 22.2843 14.5263 22.4768C13.1136 22.8617 11.0552 23.25 8.49966 23.25C5.94411 23.25 3.88586 22.8617 2.47337 22.4768C1.76722 22.2843 1.22308 22.0929 0.859702 21.9516C0.822166 21.937 0.786564 21.9229 0.752917 21.9095L0.775277 18.1263H0.775299L0.77529 18.1206C0.77446 17.631 0.897335 17.1485 1.13332 16.7168C1.36933 16.285 1.71125 15.9174 2.12884 15.6479L2.12942 15.6475L5.36505 13.555L5.95238 13.1752L5.61439 12.5628L4.35717 10.285C4.11468 9.82918 3.98941 9.32202 3.99189 8.80798L3.9919 8.80798V8.80436V5.20532C3.9919 2.7566 6.0073 0.750307 8.49909 0.75C9.69903 0.751954 10.8475 1.22421 11.693 2.06042C12.5383 2.89647 13.0119 4.02786 13.0128 5.20588L13.0128 8.80339C13.0128 8.80362 13.0128 8.80385 13.0128 8.80408C13.012 9.31982 12.885 9.82809 12.642 10.2856L11.3917 12.5509L11.0537 13.1633L11.6411 13.5431L14.8956 15.6475Z" stroke="currentColor" stroke-width="1.5"/>
</svg>
