<svg width="19" height="24" viewBox="0 0 19 24" fill="none" xmlns="http://www.w3.org/2000/svg">
<path d="M12.6875 1L13.2269 0.478945L13.0058 0.25H12.6875V1ZM18 6.5H18.75V6.19693L18.5394 5.97894L18 6.5ZM12.6875 6.5H11.9375V7.25H12.6875V6.5ZM6.3125 10.15C5.89829 10.15 5.5625 10.4858 5.5625 10.9C5.5625 11.3142 5.89829 11.65 6.3125 11.65V10.15ZM13.2188 11.65C13.633 11.65 13.9688 11.3142 13.9688 10.9C13.9688 10.4858 13.633 10.15 13.2188 10.15V11.65ZM6.3125 13.45C5.89829 13.45 5.5625 13.7858 5.5625 14.2C5.5625 14.6142 5.89829 14.95 6.3125 14.95V13.45ZM13.2188 14.95C13.633 14.95 13.9688 14.6142 13.9688 14.2C13.9688 13.7858 13.633 13.45 13.2188 13.45V14.95ZM6.3125 16.75C5.89829 16.75 5.5625 17.0858 5.5625 17.5C5.5625 17.9142 5.89829 18.25 6.3125 18.25V16.75ZM13.2188 18.25C13.633 18.25 13.9688 17.9142 13.9688 17.5C13.9688 17.0858 13.633 16.75 13.2188 16.75V18.25ZM1.75 21V3H0.25V21H1.75ZM3 1.75H12.6875V0.25H3V1.75ZM12.1481 1.52106L17.4606 7.02106L18.5394 5.97894L13.2269 0.478945L12.1481 1.52106ZM17.25 6.5V21H18.75V6.5H17.25ZM16 22.25H3V23.75H16V22.25ZM18 5.75H12.6875V7.25H18V5.75ZM13.4375 6.5V1H11.9375V6.5H13.4375ZM6.3125 11.65H13.2188V10.15H6.3125V11.65ZM6.3125 14.95H13.2188V13.45H6.3125V14.95ZM6.3125 18.25H13.2188V16.75H6.3125V18.25ZM17.25 21C17.25 21.6904 16.6904 22.25 16 22.25V23.75C17.5188 23.75 18.75 22.5188 18.75 21H17.25ZM1.75 3C1.75 2.30964 2.30964 1.75 3 1.75V0.25C1.48122 0.25 0.25 1.48122 0.25 3H1.75ZM0.25 21C0.25 22.5188 1.48122 23.75 3 23.75V22.25C2.30964 22.25 1.75 21.6904 1.75 21H0.25Z" fill="currentColor"/>
</svg>
