<svg width="18" height="18" viewBox="0 0 18 18" fill="none" xmlns="http://www.w3.org/2000/svg">
  <path
    d="M9 3C4.90909 3 1.41545 5.488 0 9C1.41545 12.512 4.90909 15 9 15C13.0909 15 16.5845 12.512 18 9C16.5845 5.488 13.0909 3 9 3ZM9 13C6.74182 13 4.90909 11.208 4.90909 9C4.90909 6.792 6.74182 5 9 5C11.2582 5 13.0909 6.792 13.0909 9C13.0909 11.208 11.2582 13 9 13ZM9 6.6C7.64182 6.6 6.54545 7.672 6.54545 9C6.54545 10.328 7.64182 11.4 9 11.4C10.3582 11.4 11.4545 10.328 11.4545 9C11.4545 7.672 10.3582 6.6 9 6.6Z"
    fill="currentColor" />
</svg>