<svg width="18" height="18" viewBox="0 0 18 18" fill="none" xmlns="http://www.w3.org/2000/svg">
  <path
    d="M9 4.9734C11.2582 4.9734 13.0909 6.80696 13.0909 9.06617C13.0909 9.48363 13.0091 9.88472 12.8945 10.2613L15.3982 12.766C16.5355 11.7592 17.4355 10.4986 18 9.05798C16.5845 5.47271 13.0909 2.92701 9 2.92701C7.96091 2.92701 6.96273 3.09072 6.02182 3.39359L7.79727 5.16985C8.18182 5.05525 8.58273 4.9734 9 4.9734ZM1.39909 2.23943C1.08 2.55866 1.08 3.07435 1.39909 3.39359L3.01091 5.00614C1.68545 6.06207 0.63 7.45362 0 9.06617C1.41545 12.6596 4.90909 15.2053 9 15.2053C10.2436 15.2053 11.43 14.9598 12.5264 14.5341L14.7518 16.7606C15.0709 17.0798 15.5864 17.0798 15.9055 16.7606C16.2245 16.4413 16.2245 15.9256 15.9055 15.6064L2.56091 2.23943C2.24182 1.92019 1.71818 1.92019 1.39909 2.23943ZM9 13.1589C6.74182 13.1589 4.90909 11.3254 4.90909 9.06617C4.90909 8.43588 5.05636 7.83834 5.31 7.31446L6.59455 8.59959C6.57 8.74693 6.54545 8.90246 6.54545 9.06617C6.54545 10.425 7.64182 11.5218 9 11.5218C9.16364 11.5218 9.31091 11.4973 9.46636 11.4645L10.7509 12.7497C10.2191 13.0116 9.63 13.1589 9 13.1589ZM11.43 8.79604C11.3073 7.65007 10.4073 6.75784 9.27 6.63506L11.43 8.79604Z"
    fill="currentColor" />
</svg>