<svg width="30" height="33" viewBox="0 0 30 33" fill="none" xmlns="http://www.w3.org/2000/svg">
  <path fill-rule="evenodd" clip-rule="evenodd"
    d="M30 3.5767C30 1.60362 28.405 0 26.4425 0H3.55747C1.595 0 0 1.60362 0 3.5767V17.9228C0 26.2475 6.71619 33 14.9961 33C23.2838 33 30 26.2475 30 17.9228C30 12.208 30 9.28371 30 3.5767Z"
    fill="#FEC800" />
  <path fill-rule="evenodd" clip-rule="evenodd"
    d="M14.0111 21.9161C14.0111 21.1379 13.37 20.509 12.5882 20.509C11.8141 20.509 11.1886 21.1379 11.1886 21.9161C11.1886 22.6944 11.8141 23.3311 12.5882 23.3311C13.37 23.3311 14.0111 22.6944 14.0111 21.9161ZM19.0225 21.9161C19.0225 21.1379 18.3814 20.509 17.6151 20.509C16.8411 20.509 16.1922 21.1379 16.1922 21.9161C16.1922 22.6944 16.8411 23.3311 17.6151 23.3311C18.3892 23.3311 19.0225 22.6944 19.0225 21.9161Z"
    fill="black" />
</svg>