<svg width="20" height="20" viewBox="0 0 20 20" fill="none" stroke="#5A5A5A" xmlns="http://www.w3.org/2000/svg">
<path d="M10.2721 7.32145C9.70401 7.26691 9.13241 7.38439 8.63562 7.65782C8.13883 7.93125 7.74113 8.34726 7.49697 8.84888C7.25281 9.3505 7.17412 9.91322 7.27169 10.46C7.36925 11.0068 7.6383 11.5108 8.04199 11.9032C8.44567 12.2956 8.96427 12.5572 9.52678 12.652C10.0893 12.7468 10.6682 12.6704 11.1842 12.433C11.7003 12.1957 12.1283 11.8091 12.4096 11.3262C12.6909 10.8433 12.8117 10.2877 12.7556 9.73547C12.6917 9.11639 12.4095 8.53785 11.9568 8.0979C11.5042 7.65794 10.909 7.38363 10.2721 7.32145V7.32145ZM16.9395 10C16.9377 10.2926 16.9156 10.5847 16.8733 10.8743L18.8293 12.3657C18.9145 12.4343 18.9719 12.53 18.9913 12.6359C19.0107 12.7418 18.9909 12.8509 18.9354 12.9439L17.0849 16.0561C17.0287 16.1482 16.9408 16.2181 16.8368 16.2534C16.7328 16.2887 16.6193 16.2872 16.5163 16.2491L14.5737 15.4887C14.4665 15.4473 14.3505 15.4323 14.236 15.4451C14.1214 15.458 14.0119 15.4983 13.9173 15.5623C13.6208 15.7608 13.3093 15.9371 12.9854 16.0897C12.8835 16.1378 12.7954 16.2096 12.7289 16.2986C12.6623 16.3877 12.6194 16.4913 12.6038 16.6003L12.3126 18.6143C12.2935 18.7207 12.2369 18.8173 12.1526 18.8877C12.0684 18.958 11.9616 18.9977 11.8505 19H8.1495C8.04027 18.9982 7.93494 18.9602 7.85087 18.8924C7.7668 18.8246 7.70899 18.731 7.68698 18.627L7.39624 16.6158C7.37991 16.5056 7.33582 16.401 7.26788 16.3114C7.19995 16.2217 7.11028 16.1498 7.00684 16.1019C6.6833 15.9501 6.37281 15.7733 6.07835 15.5733C5.98407 15.5095 5.87495 15.4696 5.76082 15.457C5.64669 15.4444 5.53115 15.4597 5.42459 15.5014L3.48237 16.2613C3.37944 16.2994 3.26599 16.301 3.16199 16.2657C3.05799 16.2305 2.97011 16.1607 2.91385 16.0687L1.06335 12.9565C1.00772 12.8636 0.987835 12.7544 1.00725 12.6485C1.02666 12.5426 1.0841 12.4469 1.16935 12.3783L2.82256 11.1166C2.91313 11.0467 2.98431 10.9559 3.02965 10.8525C3.07498 10.7491 3.09303 10.6363 3.08216 10.5244C3.06658 10.3491 3.05706 10.1741 3.05706 9.99874C3.05706 9.82336 3.06615 9.65093 3.08216 9.47935C3.09184 9.36812 3.07291 9.2563 3.02706 9.15396C2.98121 9.05161 2.9099 8.96196 2.81953 8.89308L1.16719 7.6314C1.08332 7.56247 1.02709 7.46705 1.00834 7.36185C0.989592 7.25666 1.00953 7.14841 1.06465 7.05607L2.91515 3.94393C2.97134 3.85182 3.05919 3.78195 3.16319 3.74664C3.2672 3.71132 3.38069 3.71283 3.48367 3.75089L5.42632 4.51126C5.53345 4.55272 5.64949 4.5677 5.76404 4.55486C5.87859 4.54201 5.98807 4.50175 6.08267 4.43766C6.37915 4.23921 6.6907 4.06291 7.01463 3.91028C7.11647 3.86217 7.20455 3.79042 7.2711 3.70138C7.33766 3.61234 7.38063 3.50873 7.39624 3.39972L7.68742 1.38565C7.70654 1.27929 7.76308 1.18268 7.84736 1.11233C7.93164 1.04199 8.03844 1.00229 8.1495 1H11.8505C11.9597 1.00184 12.0651 1.03979 12.1491 1.10759C12.2332 1.1754 12.291 1.26902 12.313 1.37304L12.6038 3.38416C12.6201 3.49437 12.6642 3.59896 12.7321 3.68862C12.8 3.77828 12.8897 3.85023 12.9932 3.89808C13.3167 4.04989 13.6272 4.22667 13.9217 4.42673C14.0159 4.49049 14.1251 4.53045 14.2392 4.543C14.3533 4.55556 14.4689 4.54031 14.5754 4.49865L16.5176 3.73869C16.6206 3.70059 16.734 3.69902 16.838 3.73426C16.942 3.7695 17.0299 3.83928 17.0862 3.93131L18.9366 7.04346C18.9923 7.13644 19.0122 7.24559 18.9928 7.35149C18.9733 7.45739 18.9159 7.55315 18.8306 7.62173L17.1774 8.88341C17.0865 8.95307 17.0149 9.04374 16.9692 9.14716C16.9234 9.25058 16.9051 9.36347 16.9157 9.47556C16.93 9.64967 16.9395 9.82463 16.9395 10Z" stroke-width="1.5" stroke-linecap="round" stroke-linejoin="round"/>
</svg>
