<svg width="8" height="8" viewBox="0 0 8 8" fill="currentColor" xmlns="http://www.w3.org/2000/svg">
  <path
    fill-rule="evenodd"
    clip-rule="evenodd"
    d="M7.76977 0.249C7.4952 -0.0252481 7.0504 -0.0252481 6.77583 0.249L4.10811 3.02474L1.20598 0.21149C1.02678 0.0283051 0.762128 -0.0429003 0.515208 0.0256344C0.268288 0.0941692 0.0781881 0.291595 0.0190213 0.540941C-0.0401454 0.790288 0.0409876 1.05208 0.230789 1.22426L3.11417 4L0.230789 6.77574C0.0409876 6.94792 -0.0401454 7.20971 0.0190213 7.45906C0.0781881 7.70841 0.268288 7.90583 0.515208 7.97437C0.762128 8.0429 1.02678 7.97169 1.20598 7.78851L4.10811 4.97526L6.77583 7.751C6.94799 7.94081 7.20977 8.02195 7.4591 7.96278C7.70843 7.90361 7.90584 7.7135 7.97437 7.46656C8.0429 7.21962 7.9717 6.95496 7.78853 6.77574L5.10206 3.96249L7.78853 1.14924C8.00035 0.883961 7.99246 0.505226 7.76977 0.249Z"
  />
</svg>
