<svg width="18" height="18" viewBox="0 0 18 18" fill="none" xmlns="http://www.w3.org/2000/svg">
  <path fill-rule="evenodd" clip-rule="evenodd"
    d="M8.52267 11.7826C8.48591 11.8097 8.44684 11.8336 8.40591 11.8541C8.36263 11.8879 8.31606 11.9174 8.2669 11.9421C8.21623 11.9582 8.16408 11.9692 8.11121 11.9751C8.01012 12.0083 7.90092 12.0083 7.79983 11.9751C7.74696 11.9692 7.69481 11.9582 7.64414 11.9421C7.59497 11.9174 7.54841 11.8879 7.50513 11.8541C7.46419 11.8336 7.42513 11.8097 7.38836 11.7826L5.21809 9.38156C4.91025 9.04795 4.93075 8.53146 5.26408 8.22276C5.5974 7.91405 6.11966 7.92789 6.43581 8.2538L8 10.0112L11.5642 6.2538C11.8803 5.92789 12.4026 5.91405 12.7359 6.22276C13.0693 6.53146 13.0897 7.04795 12.7819 7.38156L8.52267 11.7826Z"
    fill="currentColor" />
</svg>
