<svg width="122" height="118" viewBox="0 0 122 118" fill="none" xmlns="http://www.w3.org/2000/svg">
<path fill-rule="evenodd" clip-rule="evenodd" d="M56.7169 10.1643C58.4593 10.6643 59.9149 11.3786 61.0833 12.2868C61.1756 12.3786 62.4156 13.6847 64.7832 16.2052C66.2385 17.746 67.6631 18.6644 69.057 18.9501C68.77 14.5725 69.5796 10.399 71.4757 6.42961C72.7773 3.71529 74.3353 1.88869 76.1699 0.949903C78.7014 -0.376641 81.7556 -0.315414 85.3326 1.14378C88.7148 2.56217 91.2979 4.59283 93.071 7.23572C93.9935 8.6541 94.5877 10.1949 94.8747 11.8684C95.1924 13.5725 95.1309 15.195 94.68 16.7358C96.4531 16.5521 98.0313 17.2766 99.4252 18.9093C100.655 20.3889 101.414 22.1542 101.701 24.2053C102.08 26.9808 101.732 29.7359 100.655 32.4706C99.5484 35.2156 97.898 37.4605 95.7149 39.2258L99.5584 41.3483C99.9991 40.9401 100.635 40.2667 101.455 39.3177C102.244 38.3993 102.879 37.7462 103.351 37.3279C104.14 36.6646 104.96 36.1952 105.821 35.9095C106.805 35.5931 107.686 35.5931 108.475 35.9095C109.265 36.2258 110.259 37.0727 111.468 38.4605C111.56 38.583 113.241 40.2054 116.501 43.3279C118.489 45.2769 119.903 47.0728 120.723 48.7157C121.738 50.7667 122.148 52.9505 121.953 55.2873C121.758 57.6546 121.021 59.7464 119.719 61.5729C118.458 63.4301 116.747 64.8485 114.594 65.8281C112.442 66.8077 110.238 67.1649 107.993 66.9098C107.204 66.8486 106.682 66.8792 106.426 67.0016C105.821 67.2567 105.431 67.9608 105.236 69.1241C104.888 71.1751 104.652 72.4303 104.529 72.8997C104.181 74.2875 103.689 75.4405 103.053 76.3487C102.295 77.4508 101.25 78.1753 99.9172 78.5222C98.554 78.8692 97.4062 78.6446 96.4531 77.8589C97.5292 80.0936 97.7032 82.5018 96.9755 85.0936C96.2171 87.6753 94.772 89.6345 92.6607 90.9508C93.5114 93.0325 93.5835 95.2366 92.8558 97.5631C92.1589 99.8999 90.8467 101.686 88.9198 102.951C89.6783 102.982 90.3138 103.329 90.816 103.992C91.2875 104.655 91.4926 105.38 91.4311 106.165C91.4003 107.267 90.8162 108.635 89.6785 110.278C87.9976 112.767 86.5013 114.441 85.1689 115.288C83.9698 116.074 82.4938 116.625 80.7515 116.941C79.6138 117.125 77.9942 117.257 75.9136 117.318L57.5472 117.982C55.4871 118.043 53.8574 117.951 52.6583 117.696C50.8852 117.349 49.5426 116.625 48.6202 115.522C47.7387 114.482 47.1649 112.716 46.9086 110.227C46.6217 107.512 46.1806 105.655 45.5759 104.655C45.289 104.186 44.8279 103.584 44.2027 102.859C43.4443 102.043 42.9524 101.461 42.7269 101.114C42.4092 100.645 41.8455 99.4305 41.0153 97.4713C40.3491 95.9305 39.6211 94.8285 38.8319 94.1652C37.5302 93.0631 35.255 92.6243 31.9958 92.8386C28.4188 93.0631 25.9796 92.8284 24.6882 92.1346C23.3558 95.0325 21.224 97.1244 18.2824 98.4204C16.3863 99.2061 14.8492 99.257 13.6808 98.5631C12.1332 97.7162 11.4463 95.8999 11.641 93.1243C11.8357 91.7672 11.9588 90.7467 12.0203 90.0529C12.1433 88.8896 12.0816 87.8897 11.8357 87.0733C7.78724 88.1754 5.11212 87.8182 3.81047 85.9916C2.7343 84.4814 2.84736 82.3998 4.13876 79.7569C5.85038 76.1344 8.20759 73.0732 11.2106 70.5935C10.7391 67.6343 10.5957 64.8893 10.7802 62.3689C10.8417 60.726 11.1902 59.522 11.8257 58.7261C12.8403 57.4607 14.5926 56.9913 17.0934 57.3077C17.7288 57.3689 18.672 57.4811 19.9429 57.6341C21.0499 57.6954 21.9825 57.6036 22.7409 57.3485C22.6795 55.4301 23.12 53.7362 24.0731 52.2872C21.3469 51.6239 18.6 51.3382 15.8122 51.4403C13.3114 51.6035 11.4461 51.6648 10.2162 51.6341C8.06388 51.5729 6.31163 51.1647 4.94849 50.4096C3.5546 49.6239 2.41686 48.4198 1.53543 46.8177C0.746239 45.3381 0.254338 43.6952 0.059603 41.8993C-0.258122 38.2462 0.694833 34.7666 2.90866 31.4502C5.15323 28.1747 8.05373 26.0114 11.6 24.9808C10.493 23.0318 9.90888 20.8991 9.84738 18.6032C9.75514 16.3073 10.1957 14.1643 11.1796 12.1745C12.1635 10.1541 13.5886 8.47043 15.4539 7.11327C17.3193 5.75611 19.3588 4.95 21.5829 4.7051C24.3399 4.38877 27.2196 4.89896 30.2227 6.2153C32.4672 7.1949 34.302 8.53165 35.7266 10.2357C37.305 12.1235 37.9919 14.1133 37.7664 16.195C38.6479 14.6235 39.3754 13.4399 39.9494 12.6541C40.9026 11.4296 41.9069 10.5113 42.9831 9.90921C44.1823 9.24594 45.6068 8.88878 47.2569 8.81735C48.4254 8.78674 49.9424 8.89899 51.818 9.14389C53.8884 9.46022 55.5178 9.78676 56.7169 10.1643Z" fill="white"/>
<path fill-rule="evenodd" clip-rule="evenodd" d="M83.4362 6.43043C85.4143 6.76717 87.0236 7.70595 88.2535 9.23658C88.5303 9.58353 88.7764 9.94066 88.9712 10.308C89.7399 11.6652 89.955 13.0938 89.6373 14.5938C89.504 15.1346 89.309 15.5325 89.0733 15.7672C89.0015 15.8387 88.6633 16.0428 88.0484 16.3795L86.6136 17.3999C86.3778 17.5326 85.568 17.7774 84.2049 18.1142C83.3132 18.3489 82.6473 18.655 82.2066 19.0326C81.7659 19.3693 81.2843 19.9203 80.7718 20.6652L79.9516 21.7877C79.5724 21.4102 79.3881 21.0224 79.3881 20.6142L79.6443 19.8489C79.7776 19.3081 79.931 18.9305 80.1052 18.7265C80.177 18.5938 80.3309 18.3999 80.5666 18.1652C81.0484 17.7571 81.4889 17.4305 81.8988 17.1958C82.3088 16.9203 82.801 16.706 83.3852 16.5325C83.8259 16.3591 84.5126 16.104 85.435 15.7672L86.4599 15.0529C86.7982 14.7774 87.0443 14.5428 87.1776 14.3387C87.5568 13.7264 87.4646 12.8284 86.9213 11.6345C86.6344 11.0733 86.3679 10.6243 86.1321 10.308C86.0194 10.1652 85.9066 10.0427 85.7938 9.95083L85.0762 9.49169L84.0002 9.0835C83.252 8.8488 81.9197 8.75696 80.0031 8.82839C79.6239 8.82839 79.3571 8.84879 79.1829 8.8794C78.7012 9.01205 78.281 9.30801 77.9018 9.74679C77.7685 9.95088 77.6662 10.1345 77.5945 10.308C77.5125 10.4815 77.4613 10.6346 77.4408 10.7672C77.3691 11.1754 77.4714 11.5121 77.7481 11.7876C77.8506 11.8591 78.2091 12.0223 78.8241 12.2978C79.3365 12.5019 79.5725 12.7876 79.5417 13.1652C79.4392 13.4713 79.1522 13.6958 78.6704 13.8285C78.0247 13.9611 77.5431 13.9815 77.2357 13.8795C76.549 13.6754 76.0365 13.1652 75.6983 12.3488C75.2986 11.6141 75.1446 10.9305 75.2369 10.308C75.2574 10.2366 75.2679 10.1753 75.2884 10.1039C75.3909 9.66513 75.678 9.15492 76.1597 8.57329C76.7439 7.82838 77.2664 7.26712 77.7481 6.88957C78.4348 6.4814 79.6237 6.27734 81.3353 6.27734L83.4362 6.43043Z" fill="black"/>
<path fill-rule="evenodd" clip-rule="evenodd" d="M17.5339 19.0326C17.7081 19.1347 17.8721 19.1857 18.0464 19.1857L20.3524 19.3387C20.6599 19.3387 20.8442 19.3183 20.9159 19.2877C21.1209 19.2163 21.2029 19.0836 21.1722 18.8795H21.4284C21.6641 19.1857 21.7564 19.5632 21.6846 20.002C21.6129 20.4408 21.4083 20.7469 21.0701 20.9204C20.9983 20.951 20.6905 21.0224 20.1473 21.1245L18.5078 21.2776C17.6571 21.4102 16.9907 21.3796 16.509 21.1755C16.0273 20.9714 15.5868 20.4816 15.1768 19.6959C14.7668 18.7775 14.664 17.7367 14.869 16.5836C15.1047 15.5326 15.5661 14.5632 16.2528 13.6754C16.4885 13.4407 16.8167 13.0427 17.2266 12.5019C17.6673 11.9203 17.9439 11.5631 18.0464 11.4305C18.3333 11.0835 18.9381 10.7162 19.8605 10.3081C19.9322 10.2774 20.004 10.2366 20.0962 10.206C21.0494 9.7978 21.7669 9.56316 22.2486 9.49173C22.5561 9.4203 22.9966 9.38965 23.5808 9.38965C24.329 9.38965 24.8314 9.44069 25.0672 9.54274C25.3439 9.61417 25.713 9.84887 26.1947 10.257L26.2457 10.3081L27.4758 11.3795C27.9575 11.8591 28.2649 12.2469 28.3982 12.553C28.5006 12.8285 28.5518 13.5428 28.5518 14.6958C28.5518 15.0326 28.5721 15.5428 28.6028 16.2265C28.6028 16.8387 28.5314 17.3489 28.3982 17.7571C28.3264 17.9918 28.0085 18.604 27.4243 19.5938L26.4509 21.5837L25.3234 24.6959C25.1184 24.6653 24.9853 24.4714 24.9135 24.1347C24.6368 23.1857 24.524 22.4204 24.5547 21.8388C24.5855 21.2979 24.8108 20.5122 25.2208 19.4918L25.9895 17.604L26.2457 16.7367V15.5122C26.2765 15.0734 26.2968 14.7264 26.2968 14.4917C26.2968 14.1142 26.2253 13.7978 26.0921 13.5223C26.0613 13.4509 25.754 13.1346 25.1698 12.553C24.893 12.2775 24.6571 12.1142 24.4521 12.0428C24.2779 11.9407 24.0728 11.9203 23.8371 11.9917C23.2529 11.9917 22.6276 12.0733 21.9409 12.2468C21.2542 12.3489 20.6805 12.5734 20.1988 12.9101C19.8606 13.1448 19.5324 13.4917 19.2249 13.9305L18.5078 14.8489C17.5136 16.0428 17.0523 17.1142 17.124 18.0632L17.3287 18.7265C17.4312 18.9 17.4929 19.002 17.5339 19.0326Z" fill="black"/>
<path fill-rule="evenodd" clip-rule="evenodd" d="M48.6917 16.378C48.9992 16.0719 49.3785 15.8677 49.8192 15.7657C50.3009 15.633 50.7211 15.6637 51.1004 15.8678C51.5411 16.0719 51.9407 16.6025 52.2789 17.4494C52.4839 17.8576 52.4839 18.1331 52.2789 18.2657C52.1047 18.4698 51.8895 18.4392 51.6128 18.1637C51.3771 17.8882 51.1825 17.7249 51.0493 17.6535C50.6701 17.4494 50.3111 17.5208 49.9728 17.8575C49.7986 17.9902 49.5935 18.3371 49.3578 18.878C48.7531 20.327 48.2406 21.776 47.8204 23.2147C50.352 22.7147 53.3041 22.5617 56.6864 22.7556C63.2151 23.1638 67.8784 24.827 70.6764 27.7556C71.4963 28.6434 72.5213 30.1332 73.7512 32.2455L76.9796 37.9088C77.1845 38.2864 77.2868 38.6435 77.2868 38.9802C77.2971 39.1741 77.287 39.3272 77.2358 39.4394C79.6341 39.4802 81.9402 39.8068 84.154 40.4088C86.5421 41.0517 88.4791 41.9598 89.9447 43.1129C91.8203 44.5415 93.0403 46.2456 93.5835 48.215C93.7884 49.1028 93.8907 50.2253 93.8907 51.5824C93.8907 53.011 93.6345 54.1334 93.122 54.9497C92.8146 55.4906 92.169 56.1029 91.1748 56.7865C90.5803 57.1947 90.0268 57.5519 89.5143 57.858L95.4281 60.2049C95.7048 59.2151 96.2993 58.0825 97.2217 56.7865C98.5849 54.7457 99.3227 53.6437 99.4252 53.4702C99.9684 52.4191 100.676 50.562 101.527 47.9089C101.762 47.164 101.988 46.6538 102.193 46.3783C102.398 46.1742 102.838 45.8374 103.525 45.3578C105.093 44.3374 106.497 43.1435 107.727 41.7864C108.311 41.2047 108.773 40.9496 109.111 41.0211C109.552 41.0517 109.808 41.3578 109.88 41.9395C109.91 42.317 109.849 42.7354 109.674 43.215L107.368 50.9191C111.775 50.8477 115.055 50.9395 117.208 51.1742C117.956 51.2457 118.437 51.4497 118.642 51.7865C118.981 52.2967 118.899 52.8069 118.386 53.3171C118.181 53.5518 117.7 53.8274 116.951 54.1335L114.184 55.2048C113.907 55.2763 113.754 55.3886 113.723 55.5621C113.692 55.6641 113.753 55.8376 113.928 56.0723C114.543 56.9601 114.953 58.5008 115.158 60.7151C115.23 61.5621 115.055 62.1131 114.645 62.3478C114.307 62.5212 113.805 62.4193 113.159 62.0417C110.976 60.8172 108.526 59.9804 105.831 59.5416C105.011 59.409 104.427 59.4192 104.089 59.5927C103.751 59.6947 103.34 59.9804 102.859 60.46C102.141 61.2049 101.168 62.4805 99.9377 64.2866C98.7795 66.0519 97.8057 67.3274 97.0165 68.1132C96.5758 68.6234 96.1251 68.8989 95.6843 68.9295C95.1001 68.9602 94.4748 68.5724 93.7881 67.756L90.6108 64.1335C89.0017 62.2661 87.5565 61.0927 86.2549 60.6131C85.9884 60.5213 85.7733 60.4294 85.5888 60.358C87.3824 64.6234 88.6432 69.0928 89.3812 73.7765C89.9654 77.6541 89.7192 80.6643 88.6635 82.8072C87.7206 84.6848 85.9887 86.3684 83.4674 87.8582L82.1347 95.6135L84.3692 94.7461C85.1174 94.5114 85.6198 94.4195 85.8555 94.491C86.5012 94.5624 86.8597 94.8482 86.9315 95.3584C86.9315 95.4911 86.8084 95.8481 86.5727 96.4298C85.9885 97.3175 85.1069 98.4502 83.9078 99.8482C82.5754 101.45 81.6736 102.573 81.1918 103.216C81.0894 103.42 81.0382 103.552 81.0382 103.624C81.0382 103.797 81.1713 103.95 81.4481 104.083L86.5727 106.94C87.2901 107.42 87.6491 107.838 87.6491 108.216C87.6491 108.624 87.4233 108.981 86.9825 109.287C86.3368 109.726 85.2608 110.052 83.7541 110.256C77.7789 110.869 69.2721 111.103 58.2337 110.971C57.2396 110.971 56.4912 110.92 55.9787 110.818C55.4663 110.746 55.0769 110.583 54.8002 110.307C54.5644 109.971 54.4413 109.563 54.4413 109.083L53.6727 101.124C53.3959 98.1339 53.2836 95.8482 53.3143 94.2869C53.3143 94.1032 53.3244 93.9298 53.3449 93.7767C52.2277 93.6747 51.1108 93.542 49.9833 93.3685C47.1443 92.9604 45.1968 92.0726 44.1411 90.7155C44.1206 90.695 44.1106 90.6848 44.0901 90.6644C43.9568 90.6542 43.8029 90.6134 43.6286 90.5624C42.6755 90.2562 41.9685 89.8481 41.5278 89.3379C41.4253 89.2053 41.1382 88.6746 40.6565 87.7562C40.3798 87.2154 39.9595 86.5828 39.3753 85.8685C38.4837 84.8174 37.9915 84.2051 37.889 84.0317C37.6225 83.6643 37.2843 83.1235 36.8846 82.4194C36.5976 83.5215 36.2697 84.7358 35.8802 86.0725C35.5727 86.8888 35.2856 87.3787 35.0089 87.5522C34.5272 87.8583 33.9844 87.8889 33.3694 87.6542C33.1952 87.5828 32.7339 87.2665 31.9857 86.6849C29.8026 84.7767 28.0602 83.4909 26.7585 82.8072C26.0411 82.4705 25.4978 82.1949 25.1185 81.9908C24.5036 81.6541 24.0119 81.297 23.6327 80.9195C22.577 83.2358 21.142 85.9399 19.3279 89.0317C19.0204 89.644 18.6822 90.0726 18.3029 90.3073C17.7187 90.7154 17.2063 90.6951 16.7656 90.2563C16.5913 90.0522 16.4785 89.6645 16.4067 89.0828C16.335 86.5318 16.6323 84.1643 17.278 81.9908C15.1257 82.7051 13.0247 83.0828 10.9749 83.1134C10.2574 83.1134 9.7961 82.9908 9.59112 82.7561C9.28364 82.45 9.23249 82.0419 9.43748 81.5317C9.50922 81.2256 9.74465 80.8684 10.1546 80.4602L13.6397 76.4296C15.0439 74.8275 16.2839 74.0827 17.3806 74.1847V67.654C17.3806 66.9397 17.5037 66.4499 17.7394 66.1743C18.0776 65.8376 18.5385 65.7356 19.1227 65.8683C19.5019 65.9397 19.9221 66.154 20.4038 66.5316C22.4537 67.9602 24.3293 69.5417 26.0409 71.2764L27.0147 72.1948C27.558 72.6744 28.4806 73.2663 29.7822 73.9806C30.9096 74.7663 31.5963 75.5622 31.8321 76.3785C32.0063 76.6847 32.1186 76.8378 32.1904 76.8378C32.3236 76.8684 32.4776 76.7357 32.6518 76.4296L33.1437 75.0725C33.1232 75.0827 33.0924 75.0928 33.0617 75.103C32.8259 75.1744 32.5803 75.1744 32.3445 75.103C31.9653 74.8989 31.6271 74.5929 31.3196 74.1847C30.8789 73.6031 30.1613 72.5214 29.1672 70.9193C27.9373 68.8785 27.1994 67.2765 26.9637 66.1234C26.8612 65.4091 26.8096 64.6948 26.8096 63.9805C26.8813 62.9907 26.933 62.2458 26.9637 61.7355C27.0969 60.2049 27.3938 58.96 27.8345 58.011C28.1112 57.5008 28.6237 56.807 29.3719 55.9192C30.2225 55.0008 30.9812 54.3579 31.6269 53.9804C31.9651 53.7457 32.5187 53.4498 33.2669 53.1131C33.5948 52.9702 33.8819 52.8579 34.1381 52.7763C33.3797 49.3987 32.9492 46.9599 32.857 45.4599C32.6828 42.8374 32.9593 40.2354 33.6767 37.6537C34.3634 35.072 35.45 32.6741 36.9567 30.4598C38.3608 28.3883 39.9285 26.7658 41.6709 25.6128C42.8086 24.8474 44.1311 24.225 45.648 23.7454C46.1092 22.0107 46.683 20.2861 47.3595 18.5616C47.831 17.4902 48.2817 16.7555 48.6917 16.378Z" fill="black"/>
<path fill-rule="evenodd" clip-rule="evenodd" d="M56.0711 21.1233C55.8353 21.2254 55.5583 21.4499 55.2508 21.7866C54.8716 22.0927 54.5334 22.1744 54.2259 22.0417C53.9184 21.8683 53.7958 21.6131 53.8676 21.2764C53.8983 21.0723 54.0209 20.7662 54.2259 20.358C54.5026 19.7764 54.7897 19.409 55.0972 19.2356C55.4047 19.0621 56.1019 18.9805 57.1986 18.9805L58.5818 19.0315C59.0225 19.1029 59.6272 19.3376 60.3754 19.7458C61.9845 20.7356 62.9172 21.8886 63.1939 23.2152C62.1998 22.8376 61.1749 22.3479 60.1192 21.7356C59.5042 21.3274 59.0126 21.0927 58.6334 21.0213C58.2541 20.9193 57.6905 20.8989 56.9423 20.9703C56.5324 20.9703 56.235 21.0213 56.0711 21.1233Z" fill="black"/>
<path fill-rule="evenodd" clip-rule="evenodd" d="M70.0101 29.8479C68.0935 27.501 64.5469 26.0214 59.3506 25.4091C55.9684 25.001 53.0784 24.8989 50.6903 25.103C49.4297 25.2153 48.2508 25.4091 47.1541 25.6948C46.8364 27.0418 46.601 28.3684 46.437 29.6949C46.2628 30.5419 45.9549 30.9398 45.5142 30.8683C45.2067 30.8377 44.9813 30.5316 44.8481 29.95C44.6841 29.0112 44.7458 27.8275 45.0327 26.4091C44.2026 26.7459 43.4236 27.1439 42.7062 27.6031C40.0721 29.2663 38.0734 31.7562 36.7103 35.0521C35.5111 38.0113 34.9475 41.246 35.0193 44.7461C35.1218 47.5318 35.6134 50.7462 36.5051 54.389C37.0483 56.5013 37.9198 59.6442 39.1189 63.8279C39.5597 65.4606 40.1744 67.9095 40.9636 71.1749L44.3461 85.6649C44.7561 87.3282 45.2377 88.4914 45.7809 89.1342C46.7341 90.3281 48.5991 91.0221 51.3664 91.2261C58.2334 91.8078 64.8239 91.3997 71.1477 90.0017C75.893 89.0119 79.8287 87.471 82.9342 85.3587C85.0148 83.8587 86.3471 82.3485 86.9313 80.8179C87.5463 79.2873 87.6283 77.1648 87.1876 74.4403C86.3676 69.4096 84.9842 64.5626 83.0368 59.8993V59.8789C82.0734 59.9707 81.0176 60.0319 79.8595 60.0523C76.0673 60.1237 73.228 59.981 71.3524 59.6442C70.2557 59.4401 68.8211 59.0829 67.048 58.5727C64.9264 57.9299 63.4813 57.5218 62.6921 57.3483C59.3816 56.5013 55.0049 56.1747 49.5728 56.3788C48.3737 56.3788 47.6769 56.0931 47.4719 55.5115C47.3694 55.0727 47.5437 54.5625 47.9844 53.9809C50.7209 50.1339 53.8057 47.1441 57.2597 45.0012C58.3564 44.3583 59.6684 43.6746 61.2057 42.9603C65.0287 41.2971 68.811 40.2052 72.5314 39.695C73.7408 39.5419 74.9297 39.4603 76.0981 39.4399C76.0264 39.3787 75.9444 39.3174 75.8624 39.2358C74.5607 37.8378 73.4538 36.2562 72.5314 34.4909C72.0189 33.4399 71.6291 32.6337 71.3524 32.0929C70.8911 31.1745 70.4509 30.4296 70.0101 29.8479Z" fill="black"/>
<path fill-rule="evenodd" clip-rule="evenodd" d="M79.2345 24.4902C79.7469 24.6229 80.0746 24.776 80.2079 24.9494C80.5461 25.2862 80.6489 25.7862 80.5156 26.4291C80.5156 26.8372 80.3925 27.1434 80.1568 27.3475C79.9826 27.4801 79.6752 27.5515 79.2345 27.5515C78.6195 27.6229 78.1582 27.5005 77.8507 27.1944C77.7175 27.0923 77.6147 26.8576 77.543 26.4801C77.543 25.9392 77.6766 25.5107 77.9533 25.2045C78.2916 24.7964 78.6912 24.5923 79.1319 24.5923C79.2651 24.5923 79.296 24.5617 79.2345 24.4902Z" fill="black"/>
<path fill-rule="evenodd" clip-rule="evenodd" d="M60.2736 39.5414C59.6279 39.3679 59.2278 39.2557 59.0946 39.1843C58.8588 39.0108 58.6542 38.7455 58.48 38.3679L57.0447 36.3271C56.3273 35.3373 55.9688 34.4903 55.9688 33.776C55.9688 33.0311 56.2558 32.5515 56.84 32.3474C57.25 32.174 57.8339 32.3474 58.5821 32.8576C59.8837 33.9495 60.8575 35.1536 61.5032 36.4801C61.8824 37.2658 62.0464 37.9291 62.0157 38.47C61.9439 39.2863 61.6265 39.7149 61.0423 39.7455C60.8681 39.7455 60.6118 39.6842 60.2736 39.5414Z" fill="black"/>
<path fill-rule="evenodd" clip-rule="evenodd" d="M73.2389 41.6853C70.6766 41.92 67.0073 42.9302 62.221 44.6956C60.6528 45.3078 59.4845 45.7976 58.7363 46.1751C58.1521 46.5119 57.3218 47.0935 56.2251 47.9098C54.6877 49.0323 53.5605 49.9303 52.8431 50.614C51.6849 51.7058 50.824 52.8078 50.2808 53.9303C54.3804 53.6548 58.357 53.9303 62.221 54.7467C63.8301 55.0834 66.167 55.7365 69.2418 56.6855C70.9841 57.2263 72.3473 57.5732 73.3414 57.7059C74.1614 57.8079 75.4117 57.859 77.0823 57.859H81.5918C83.406 57.7876 84.5437 57.7059 85.0254 57.6039C85.1997 57.5631 85.3842 57.512 85.5584 57.4508C85.7429 57.2161 86.0197 57.0937 86.4092 57.0937C86.4707 57.0835 86.5319 57.0732 86.6139 57.0732C87.608 56.6651 88.7049 56.0835 89.8938 55.3079C90.7445 54.7671 91.298 54.2568 91.5338 53.7773C91.7695 53.3385 91.8921 52.5732 91.8921 51.4813C91.8921 50.0833 91.7695 49.0629 91.5338 48.4201C91.298 47.6037 90.7445 46.7568 89.8938 45.869C88.3564 44.3078 86.3066 43.1445 83.7443 42.3996C81.9712 41.8894 79.614 41.6037 76.6724 41.5322C75.1351 41.5322 73.987 41.5833 73.2389 41.6853Z" fill="black"/>
<path fill-rule="evenodd" clip-rule="evenodd" d="M52.9968 34.1334C53.4375 35.8681 53.5606 37.6845 53.3556 39.5927C53.2839 40.4397 53.0991 41.0519 52.7916 41.4295C52.6174 41.7356 52.3612 41.96 52.0229 42.0927C51.6847 42.2253 51.357 42.2253 51.0496 42.0927C50.5679 41.8886 50.26 41.4805 50.1267 40.8682C50.055 40.6642 49.9938 40.1233 49.9221 39.2355C49.7888 38.6233 49.7377 38.1641 49.7684 37.858C49.8709 37.4498 49.9424 37.1233 49.9731 36.8886C50.0039 36.409 50.045 36.0417 50.0757 35.7661C50.1782 34.9498 50.5575 34.2151 51.2032 33.5722C51.6849 33.1641 52.1051 33.062 52.4844 33.2661C52.6893 33.409 52.8533 33.6947 52.9968 34.1334Z" fill="black"/>
<path fill-rule="evenodd" clip-rule="evenodd" d="M79.5929 54.6954L79.4392 54.3893L79.3882 53.9811L79.4908 53.675L79.5418 53.2158C79.6136 53.1138 79.7264 53.0321 79.9006 52.9607L80.3105 52.9097V52.8076C80.618 52.8076 80.8945 52.8587 81.1302 52.9607C81.3045 52.9913 81.4584 53.0832 81.5917 53.2158C81.7659 53.4199 81.817 53.624 81.7453 53.828L81.5406 54.3893C81.4689 54.5934 81.3869 54.7261 81.2844 54.7975C81.0077 55.0322 80.6178 55.0831 80.1053 54.9505C79.8593 54.9505 79.6954 54.8688 79.5929 54.6954Z" fill="black"/>
<path fill-rule="evenodd" clip-rule="evenodd" d="M30.4993 29.5929C30.4993 29.8276 30.4278 30.1236 30.2946 30.4603C30.1203 30.7664 29.8844 30.9501 29.5769 31.0215C29.3719 31.0215 29.136 30.9399 28.8593 30.7664C28.4493 30.4909 28.2139 30.2256 28.1421 29.9501C28.0704 29.7766 28.0396 29.4705 28.0396 29.0317C28.0396 28.7562 28.0704 28.5521 28.1421 28.4195C28.2139 28.2154 28.3673 28.0827 28.6031 28.0113C28.808 27.9092 29.0339 27.8888 29.2697 27.9603C29.9154 28.0317 30.325 28.2664 30.4993 28.6746C30.5608 28.8786 30.5608 29.1847 30.4993 29.5929Z" fill="black"/>
<path fill-rule="evenodd" clip-rule="evenodd" d="M19.5333 36.7366C19.5025 37.0121 19.3794 37.4203 19.1744 37.9611C19.1027 38.2367 19.0516 38.6448 19.0208 39.1857L18.7646 40.002C18.6928 40.3081 18.662 40.6857 18.662 41.1245C18.662 41.3592 18.6823 41.7163 18.713 42.1959C18.6413 43.0837 18.7132 43.6755 18.9182 43.9816C19.0925 44.2163 19.3795 44.3898 19.7895 44.4919C19.9945 44.5633 20.3327 44.6245 20.8144 44.6959C21.0911 44.798 21.5008 44.9715 22.044 45.2062C22.4847 45.3796 22.8844 45.4102 23.2226 45.3082C22.5359 45.9919 21.9622 46.3592 21.4805 46.4306C21.2448 46.502 20.8858 46.502 20.404 46.4306C19.6559 46.3592 19.0208 46.1959 18.5083 45.9204C17.6577 45.4408 17.1452 44.7163 16.971 43.7265C16.9402 43.5939 16.9194 42.9408 16.9194 41.7877C16.8477 40.7673 16.8168 40.1551 16.8168 39.951C16.8886 39.4408 16.9402 39.053 16.971 38.7775L17.2272 37.655C17.4322 36.5632 17.4013 35.7877 17.1246 35.3081C16.8479 35.2775 16.5405 35.053 16.2023 34.6448C15.8231 34.206 15.536 33.9509 15.331 33.8795C15.1978 33.808 14.9724 33.7775 14.6649 33.7775C13.9167 33.7775 13.3632 33.8489 13.0249 33.9816C12.6867 34.1142 12.3277 34.3387 11.9485 34.6448C10.7493 35.5326 10.0014 36.206 9.69394 36.6856C9.15073 37.5326 8.84336 38.8795 8.77161 40.7163C8.77161 41.4612 8.82276 42.0122 8.92525 42.3489C9.09949 42.9612 9.41691 43.3694 9.89862 43.5735C10.4418 43.8081 11.1594 43.6959 12.0511 43.2163C13.076 42.7061 13.7627 42.451 14.1009 42.451C14.3776 42.451 14.5827 42.502 14.7159 42.604C14.9209 42.8081 14.9721 42.9918 14.8696 43.1653C14.7671 43.3694 14.48 43.502 13.9983 43.5735C13.7933 43.7061 13.5887 44.0021 13.3837 44.4408C13.2095 44.6143 12.9427 44.7673 12.5635 44.9L11.6922 45.4613C11.4155 45.5939 10.9238 45.6959 10.2064 45.7674C9.6222 45.7674 9.25312 45.7163 9.07889 45.6143C8.9764 45.5837 8.69987 45.2878 8.25915 44.747C7.87993 44.4408 7.61315 44.2163 7.43892 44.0837C7.13144 43.8081 6.92636 43.5429 6.82387 43.2673C6.69063 42.9612 6.65003 42.4714 6.72177 41.7877C6.58853 40.0836 6.61888 38.8285 6.82387 38.0122C6.89561 37.7775 7.13154 37.2469 7.54151 36.4305C7.84898 35.7468 8.17716 35.2264 8.51538 34.8489C8.72037 34.6142 9.35542 34.0529 10.4111 33.1652C10.9235 32.655 11.3337 32.2978 11.6412 32.0937C11.8769 31.9611 12.3074 31.8183 12.9223 31.6856C14.1522 31.4101 15.1569 31.4509 15.946 31.7876C16.561 32.0223 17.1758 32.4713 17.7907 33.1142C18.4364 33.6958 18.8977 34.2162 19.1744 34.6958C19.5434 35.4509 19.6665 36.1244 19.5333 36.7366Z" fill="black"/>
<path fill-rule="evenodd" clip-rule="evenodd" d="M27.2712 46.7365C27.3737 47.1447 27.3534 47.5018 27.2201 47.808C27.1176 48.1141 26.9125 48.3692 26.6051 48.5733C26.4001 48.7774 26.195 48.8794 25.99 48.8794L25.6312 48.8284C25.1905 48.6243 24.9139 48.3896 24.8115 48.1141C24.6065 47.7365 24.6065 47.3794 24.8115 47.0426L25.0161 46.7875L25.2213 46.2773C25.3956 45.9712 25.6518 45.8896 25.99 46.0222V45.8691C26.4307 45.8691 26.7381 45.9712 26.9123 46.1753C26.9738 46.2467 27.0969 46.4304 27.2712 46.7365Z" fill="black"/>
<path fill-rule="evenodd" clip-rule="evenodd" d="M29.5261 58.7264C29.0444 59.6447 28.7776 61.0222 28.7058 62.859C28.5726 64.6651 28.6754 66.053 29.0136 67.0428C29.1161 67.3183 29.4543 67.9407 30.0385 68.9305C31.1967 70.7673 32.1908 72.1755 33.0107 73.1653C33.2772 73.4306 33.4615 73.6857 33.5742 73.9306L36.9052 64.8489C36.9359 64.7366 36.977 64.6243 37.0078 64.512L34.4965 54.2773C33.6151 54.6345 32.6824 55.2875 31.678 56.216L30.9609 56.8793C30.3049 57.5426 29.8335 58.1549 29.5261 58.7264Z" fill="black"/>
<path fill-rule="evenodd" clip-rule="evenodd" d="M19.5331 68.624V74.6445C19.5331 75.3282 19.4303 75.767 19.2253 75.9711C18.9896 76.2058 18.6311 76.3486 18.1494 76.3792C17.5652 76.3792 17.1449 76.3996 16.8682 76.4303C16.0483 76.5629 15.2284 77.1955 14.4085 78.318C13.5168 79.6139 12.8196 80.4098 12.3071 80.716C15.0027 80.6445 16.8682 80.1752 17.8931 79.2875C18.6106 78.5732 19.1742 78.2976 19.5842 78.4711C19.9634 78.6446 20.1477 79.0018 20.1477 79.5426C20.1477 79.6752 20.0145 80.0833 19.7378 80.767C19.1946 81.8895 18.7438 83.6957 18.4056 86.1753C18.8463 85.7977 19.3588 85.0017 19.943 83.7772L22.0954 79.2875C22.3004 78.7773 22.5566 78.4711 22.8641 78.3691C23.2023 78.2364 23.5608 78.2875 23.9401 78.5222L24.8113 79.2875C25.498 79.9303 26.7072 80.6649 28.4496 81.4813C29.0953 81.8588 29.9871 82.5017 31.1145 83.4201C31.8319 83.9609 32.7237 84.563 33.7794 85.2058L35.9318 78.5222C36.1676 77.6038 36.3621 76.2466 36.4953 74.4405L36.8026 70.971L33.933 78.6751C33.6563 79.3894 33.3181 79.818 32.9081 79.9506C32.3239 80.1241 31.7295 79.7976 31.1145 78.9813C30.4995 77.8894 29.9871 77.0935 29.5771 76.5833C29.1979 76.1037 28.6034 75.6343 27.7835 75.1547C26.8918 74.6445 26.2462 74.2364 25.8363 73.9303C25.2521 73.5221 24.5548 72.8893 23.7349 72.0424C22.7817 71.0526 22.1158 70.4098 21.7366 70.1037C21.0806 69.5629 20.353 69.073 19.5331 68.624Z" fill="black"/>
<path fill-rule="evenodd" clip-rule="evenodd" d="M37.8791 80.2052C38.1148 80.4807 38.371 80.9501 38.6478 81.6338C38.9553 82.2461 39.5497 83.0624 40.4414 84.0828C41.3331 85.0726 41.9067 85.8685 42.1834 86.4808C42.3782 86.8583 42.5321 87.1645 42.6654 87.3992C42.6244 87.2563 42.5833 87.1033 42.5423 86.9401L38.6783 71.2256C38.6783 73.0623 38.504 75.0419 38.1453 77.1439C38.0018 77.9297 37.7968 78.8684 37.5303 79.9501C37.6328 80.0113 37.7561 80.1032 37.8791 80.2052Z" fill="black"/>
<path fill-rule="evenodd" clip-rule="evenodd" d="M77.7993 91.7368C76.1389 94.1246 74.6532 96.543 73.3413 98.9818L80.1259 96.3798C80.1054 96.0736 80.1262 95.7164 80.198 95.3083L81.4276 88.9307C81.1406 89.0735 80.854 89.2062 80.5568 89.3389C79.8701 89.645 79.1626 89.9307 78.4554 90.2062C78.4656 90.2572 78.4656 90.3083 78.4554 90.3593C78.4246 90.7368 78.2093 91.196 77.7993 91.7368Z" fill="black"/>
<path fill-rule="evenodd" clip-rule="evenodd" d="M65.5517 93.5229C63.9426 93.727 62.3435 93.8698 60.7344 93.9311C60.7959 94.1045 60.8368 94.2881 60.888 94.4922C61.093 95.1759 61.5235 96.38 62.1692 98.1148L63.8607 102.248C65.2238 101.972 67.294 101.309 70.0612 100.258L70.7789 99.9719C70.7584 99.8596 70.7584 99.7372 70.7789 99.5841C70.8096 99.3494 70.9839 98.9515 71.2913 98.4107L75.7493 91.1963C72.4696 92.2983 69.0672 93.0739 65.5517 93.5229Z" fill="white"/>
<path fill-rule="evenodd" clip-rule="evenodd" d="M55.3026 94.7974C55.2001 96.4301 55.3232 98.6444 55.6614 101.43C56.0714 104.593 56.276 106.808 56.276 108.063C56.3785 108.44 56.4605 108.644 56.5322 108.675C56.604 108.746 56.7376 108.777 56.9426 108.777C68.7599 108.849 77.8814 108.593 84.3076 108.012C82.842 107.063 81.3152 106.257 79.7471 105.614C78.8246 105.206 78.3325 104.746 78.2607 104.236C78.189 103.797 78.4863 103.246 79.132 102.604C79.6137 102.124 80.2593 101.348 81.0792 100.257L83.4879 97.1953C78.7015 98.828 73.7 100.787 68.4729 103.063L64.8857 104.542C64.0965 104.951 63.4301 105.022 62.8869 104.746C62.5077 104.573 62.2206 104.236 62.0156 103.726C61.9439 103.491 61.8311 102.991 61.6568 102.246C61.4826 101.634 61.1241 100.797 60.5809 99.7464C59.9967 98.5933 59.6276 97.7362 59.4534 97.1953C59.1766 96.1749 59.0126 95.5933 58.9409 95.4607C58.5822 94.8484 58.3568 94.3586 58.2543 93.981C57.2806 93.981 56.3068 93.9606 55.3332 93.8994C55.3434 94.1647 55.3334 94.4606 55.3026 94.7974Z" fill="black"/>
<path fill-rule="evenodd" clip-rule="evenodd" d="M90.6104 25.0013C89.7187 25.134 89.104 25.3789 88.7657 25.7156C88.489 25.9503 88.3559 26.2565 88.3559 26.634C88.3251 27.0116 88.438 27.2973 88.7147 27.5014C88.7454 27.5014 88.94 27.583 89.2782 27.7565C89.4832 27.8585 89.6163 27.981 89.6881 28.1137C89.8623 28.3892 89.7909 28.6443 89.4834 28.879C89.2477 29.0524 88.9706 29.1136 88.6632 29.083C87.9765 29.0524 87.4129 28.7055 86.9721 28.0626C86.5314 27.4503 86.3775 26.7871 86.5107 26.0728C86.7157 24.7463 87.618 23.7564 89.2272 23.1136C90.0778 22.8075 90.7949 22.7871 91.3791 23.0626C91.7583 23.236 92.1785 23.6238 92.6602 24.236C93.3059 25.083 93.7061 25.6953 93.8393 26.0728C94.075 26.7157 94.1976 27.5728 94.1976 28.6239C94.2694 29.9504 93.9928 30.8483 93.3779 31.3279C93.0397 31.5626 92.5272 31.7157 91.8405 31.7871C90.9488 31.8586 90.3747 31.9198 90.0979 31.9912C89.688 32.1239 89.1452 32.5321 88.4585 33.2158L86.7159 34.9504C86.8184 34.7157 86.9415 34.2055 87.0747 33.4198C87.1772 32.7769 87.3307 32.277 87.5356 31.9402C88.1506 30.7463 89.6677 29.981 92.0967 29.6443C92.3735 28.7973 92.3532 27.9402 92.0457 27.0932C91.769 26.2463 91.2868 25.5524 90.6104 25.0013Z" fill="black"/>
<path fill-rule="evenodd" clip-rule="evenodd" d="M86.6135 39.8484C86.4803 39.9199 86.2857 39.9199 86.05 39.8484C85.5068 39.675 85.1478 39.3382 84.9735 38.828C84.9018 38.4505 84.9226 38.1954 85.0251 38.0627C85.1993 37.7566 85.5375 37.5729 86.05 37.5014V37.3994C86.46 37.6035 86.747 37.7872 86.9213 37.9606C87.2287 38.2668 87.3513 38.5729 87.2796 38.879C87.2796 39.0117 87.2081 39.1852 87.0749 39.3892C86.9314 39.6648 86.7775 39.8178 86.6135 39.8484Z" fill="black"/>
<path fill-rule="evenodd" clip-rule="evenodd" d="M86.5625 52.7574C86.4908 53.0635 86.388 53.2881 86.2548 53.4207C86.1215 53.5534 85.8758 53.6248 85.5376 53.6248C85.3326 53.6554 85.0556 53.6452 84.7174 53.5737C84.4099 53.4411 84.2053 53.2676 84.1028 53.0635C83.9696 52.8288 83.9285 52.5737 84.0002 52.2982C84.0002 52.0941 84.0717 51.8901 84.2049 51.686L84.7174 51.3289C85.0249 51.1962 85.353 51.0941 85.6913 51.0227V50.9717C86.132 51.1043 86.4085 51.2982 86.511 51.5329C86.5827 51.6656 86.6136 51.8697 86.6136 52.1452L86.5625 52.7574Z" fill="black"/>
<path fill-rule="evenodd" clip-rule="evenodd" d="M99.5277 61.3278C100.553 60.3788 101.27 59.6238 101.68 59.083C101.988 58.6748 102.213 58.3891 102.346 58.2156C102.623 57.8381 102.889 57.583 103.166 57.4503C103.443 57.2769 103.915 57.1952 104.601 57.1952C105.216 57.2258 106.067 57.4196 107.164 57.7564L112.903 59.4912C113.179 58.4707 112.903 57.6339 112.083 56.9911C111.776 56.8176 111.55 56.685 111.417 56.583C111.14 56.4095 110.955 56.2258 110.853 56.0217C110.648 55.685 110.669 55.287 110.904 54.8482C111.109 54.44 111.437 54.1339 111.878 53.9298C112.114 53.8278 112.524 53.6951 113.108 53.5217C113.62 53.389 114.01 53.2462 114.286 53.1135C112.032 53.0115 109.592 53.0421 106.958 53.2156C106.108 53.287 105.554 53.1646 105.318 52.8584C105.113 52.5523 105.083 52.0625 105.216 51.3788C105.728 49.2053 106.446 47.0625 107.368 44.9502C105.288 46.3482 103.935 47.6339 103.32 48.8278C103.146 49.1339 102.879 49.8176 102.5 50.8686C101.649 53.389 100.532 55.5422 99.1689 57.3483C98.144 58.7463 97.5495 59.7157 97.3753 60.2565C97.0678 61.2463 96.8116 61.8177 96.6066 61.9911C96.1659 62.3993 95.582 62.4809 94.8646 62.2462C94.4238 62.1442 93.9114 61.8891 93.3272 61.4809C91.9948 60.6952 90.662 60.1034 89.3296 59.6952L95.5307 66.4299C95.6331 66.5014 95.8585 66.3279 96.1967 65.9197C96.2992 65.7463 96.5863 65.4606 97.068 65.0524C97.478 64.6748 97.9085 64.083 98.3492 63.2667C98.8924 62.2871 99.2818 61.634 99.5277 61.3278Z" fill="black"/>
<path fill-rule="evenodd" clip-rule="evenodd" d="M70.0104 29.8479C70.4511 30.4296 70.9019 31.1745 71.3426 32.0929C71.6193 32.6337 72.0087 33.4399 72.5212 34.4909C73.4436 36.2562 74.5505 37.8378 75.8521 39.2358C75.9341 39.3174 76.0059 39.3787 76.0879 39.4399C74.9194 39.4603 73.7306 39.5419 72.5212 39.695C68.8007 40.2052 65.0189 41.2971 61.196 42.9603C59.6586 43.6746 58.3466 44.3583 57.25 45.0012C53.796 47.1441 50.7112 50.1339 47.9746 53.9809C47.5339 54.5625 47.3597 55.0727 47.4622 55.5115C47.6672 56.0931 48.3639 56.3788 49.5631 56.3788C54.9951 56.1747 59.3713 56.5013 62.6818 57.3483C63.471 57.5218 64.9161 57.9299 67.0377 58.5727C68.8108 59.0829 70.2459 59.4401 71.3426 59.6442C73.2182 59.981 76.057 60.1237 79.8492 60.0523C81.0074 60.0319 82.0632 59.9707 83.0266 59.8789V59.8993C84.9739 64.5626 86.3579 69.4096 87.1778 74.4403C87.6185 77.1648 87.5365 79.2873 86.9216 80.8179C86.3374 82.3485 85.0046 83.8587 82.924 85.3587C79.8185 87.471 75.8828 89.0119 71.1374 90.0017C64.8137 91.3997 58.2236 91.8078 51.3567 91.2261C48.5894 91.0221 46.7238 90.3281 45.7707 89.1342C45.2274 88.4914 44.7458 87.3282 44.3359 85.6649L40.9538 71.1749C40.1646 67.9095 39.5494 65.4606 39.1087 63.8279C37.9095 59.6442 37.0385 56.5013 36.4953 54.389C35.6037 50.7462 35.1115 47.5318 35.009 44.7461C34.9373 41.246 35.5014 38.0113 36.7005 35.0521C38.0637 31.7562 40.0619 29.2663 42.6959 27.6031C43.4236 27.1439 44.1923 26.7459 45.0225 26.4091C44.7355 27.8377 44.6743 29.0214 44.8383 29.95C44.9716 30.5316 45.1969 30.8377 45.5044 30.8683C45.9451 30.9398 46.2525 30.5419 46.4267 29.6949C46.5907 28.3684 46.8267 27.0316 47.1444 25.6948C48.2411 25.4091 49.4194 25.2153 50.6801 25.103C53.0681 24.8989 55.9586 25.001 59.3408 25.4091C64.5372 26.0214 68.0938 27.501 70.0104 29.8479Z" fill="#FFC709"/>
<path fill-rule="evenodd" clip-rule="evenodd" d="M73.2389 41.6853C73.987 41.5833 75.1351 41.5322 76.6724 41.5322C79.614 41.6037 81.9712 41.8894 83.7443 42.3996C86.3066 43.1445 88.3564 44.3078 89.8938 45.869C90.7445 46.7568 91.298 47.6037 91.5338 48.4201C91.7695 49.0629 91.8921 50.0833 91.8921 51.4813C91.8921 52.5732 91.7695 53.3385 91.5338 53.7773C91.298 54.2568 90.7445 54.7671 89.8938 55.3079C88.7049 56.0733 87.608 56.6651 86.6139 57.0732C86.5319 57.0834 86.4707 57.0937 86.4092 57.0937C86.03 57.0937 85.7429 57.2161 85.5584 57.4508C85.3739 57.512 85.1997 57.5631 85.0254 57.6039C84.5437 57.7059 83.406 57.7876 81.5918 57.859H77.0823C75.4117 57.859 74.1614 57.8079 73.3414 57.7059C72.3473 57.5732 70.9841 57.2263 69.2418 56.6855C66.167 55.7365 63.8301 55.0834 62.221 54.7467C58.357 53.9303 54.3804 53.6548 50.2808 53.9303C50.824 52.8078 51.6849 51.7058 52.8431 50.614C53.5605 49.9303 54.6877 49.0323 56.2251 47.9098C57.3218 47.0935 58.1521 46.5119 58.7363 46.1751C59.4845 45.7976 60.6528 45.3078 62.221 44.6956C66.9971 42.9302 70.6766 41.9302 73.2389 41.6853Z" fill="#FFC709"/>
<path fill-rule="evenodd" clip-rule="evenodd" d="M77.7991 91.7368C78.209 91.196 78.4349 90.7368 78.4657 90.3593C78.4759 90.3083 78.4759 90.2572 78.4657 90.2062C79.1729 89.9307 79.8799 89.645 80.5665 89.3389C80.8638 89.2062 81.1509 89.0735 81.4378 88.9307L80.2077 95.3083C80.136 95.7164 80.1054 96.0736 80.1362 96.3798L73.3511 98.9818C74.6527 96.543 76.1387 94.1246 77.7991 91.7368Z" fill="#FFC709"/>
<path fill-rule="evenodd" clip-rule="evenodd" d="M37.8788 80.2052C37.7559 80.0929 37.6328 80.0113 37.52 79.9501C37.7865 78.8684 37.9916 77.9297 38.1351 77.1439C38.4938 75.0419 38.6783 73.0623 38.668 71.2256L42.532 86.9401C42.573 87.1033 42.6136 87.2563 42.6546 87.3992C42.5214 87.1645 42.3577 86.8583 42.1732 86.4808C41.8965 85.8685 41.3223 85.0726 40.4306 84.0828C39.539 83.0624 38.9445 82.2461 38.637 81.6338C38.3705 80.9603 38.1146 80.4807 37.8788 80.2052Z" fill="#FFC709"/>
<path fill-rule="evenodd" clip-rule="evenodd" d="M19.5331 68.624C20.353 69.0628 21.0909 69.5629 21.7366 70.1037C22.1158 70.4098 22.7817 71.0526 23.7349 72.0424C24.5548 72.8893 25.2521 73.5221 25.8363 73.9303C26.2462 74.2364 26.8918 74.6445 27.7835 75.1547C28.6034 75.6343 29.1979 76.1037 29.5771 76.5833C29.9871 77.0935 30.4995 77.8894 31.1145 78.9813C31.7295 79.7976 32.3239 80.1241 32.9081 79.9506C33.3181 79.818 33.6563 79.3894 33.933 78.6751L36.8026 70.971L36.4953 74.4405C36.3621 76.2466 36.1676 77.6038 35.9318 78.5222L33.7794 85.2058C32.7237 84.563 31.8319 83.9609 31.1145 83.4201C29.9871 82.5017 29.0953 81.8588 28.4496 81.4813C26.7072 80.6649 25.498 79.9303 24.8113 79.2875L23.9401 78.5222C23.5608 78.2875 23.2023 78.2364 22.8641 78.3691C22.5566 78.4711 22.3004 78.7773 22.0954 79.2875L19.943 83.7772C19.3588 85.0017 18.8463 85.7977 18.4056 86.1753C18.7438 83.6957 19.1946 81.8895 19.7378 80.767C20.0145 80.0833 20.1477 79.6752 20.1477 79.5426C20.1477 79.0018 19.9634 78.6446 19.5842 78.4711C19.1742 78.2976 18.6106 78.5732 17.8931 79.2875C16.8682 80.1752 15.0027 80.6445 12.3071 80.716C12.8196 80.4098 13.5168 79.6139 14.4085 78.318C15.2284 77.1955 16.0483 76.5629 16.8682 76.4303C17.1449 76.3996 17.5652 76.3792 18.1494 76.3792C18.6311 76.3486 18.9896 76.2058 19.2253 75.9711C19.4303 75.767 19.5331 75.3282 19.5331 74.6445V68.624V68.624Z" fill="#FFC709"/>
<path fill-rule="evenodd" clip-rule="evenodd" d="M29.5261 58.7269C29.8335 58.1452 30.3152 57.5329 30.9609 56.8901L31.678 56.2268C32.6824 55.2982 33.6151 54.6452 34.4965 54.2881L37.0078 64.5228C36.977 64.6248 36.9359 64.7372 36.9052 64.8596L33.5742 73.9412C33.4717 73.6963 33.2772 73.4412 33.0107 73.1759C32.1908 72.1861 31.1967 70.778 30.0385 68.9413C29.4543 67.9515 29.1161 67.3289 29.0136 67.0534C28.6754 66.0636 28.5726 64.6759 28.7058 62.8697C28.7673 61.0228 29.0444 59.6453 29.5261 58.7269Z" fill="#FFC709"/>
<path fill-rule="evenodd" clip-rule="evenodd" d="M55.3026 94.7974C55.3436 94.4504 55.3436 94.1545 55.3231 93.8994C56.2968 93.9504 57.2706 93.981 58.2442 93.981C58.3467 94.3586 58.5824 94.8484 58.9309 95.4607C59.0026 95.5933 59.1666 96.1749 59.4433 97.1953C59.6176 97.7362 59.9866 98.5933 60.5708 99.7464C61.114 100.797 61.4726 101.634 61.6468 102.246C61.821 102.991 61.9339 103.491 62.0056 103.726C62.2106 104.236 62.4977 104.573 62.8769 104.746C63.4201 105.022 64.086 104.951 64.8752 104.542L68.4624 103.063C73.6895 100.787 78.691 98.828 83.4774 97.1953L81.0692 100.257C80.2493 101.348 79.6032 102.124 79.1215 102.604C78.4758 103.246 78.1789 103.797 78.2507 104.236C78.3224 104.746 78.8141 105.206 79.7365 105.614C81.3046 106.257 82.832 107.063 84.2976 108.012C77.8714 108.593 68.7494 108.849 56.9321 108.777C56.7271 108.777 56.5939 108.746 56.5222 108.675C56.4505 108.644 56.3685 108.44 56.266 108.063C56.266 106.808 56.0609 104.593 55.6509 101.43C55.3127 98.6444 55.2001 96.4301 55.3026 94.7974Z" fill="#FFC709"/>
<path fill-rule="evenodd" clip-rule="evenodd" d="M99.5277 61.3278C99.292 61.634 98.8924 62.2769 98.3492 63.2667C97.9085 64.083 97.478 64.6748 97.068 65.0524C96.5863 65.4606 96.2992 65.7463 96.1967 65.9197C95.8585 66.3279 95.6331 66.5014 95.5307 66.4299L89.3296 59.6952C90.662 60.1034 91.9948 60.6952 93.3272 61.4809C93.9114 61.8891 94.4238 62.1442 94.8646 62.2462C95.582 62.4809 96.1659 62.3993 96.6066 61.9911C96.8116 61.8177 97.0678 61.2463 97.3753 60.2565C97.5495 59.7157 98.144 58.7463 99.1689 57.3483C100.532 55.5422 101.649 53.389 102.5 50.8686C102.879 49.8176 103.146 49.1339 103.32 48.8278C103.935 47.6339 105.288 46.3482 107.368 44.9502C106.446 47.0625 105.728 49.2053 105.216 51.3788C105.083 52.0625 105.113 52.5523 105.318 52.8584C105.554 53.1646 106.108 53.287 106.958 53.2156C109.592 53.0421 112.032 53.0115 114.286 53.1135C114.01 53.2462 113.62 53.389 113.108 53.5217C112.524 53.6951 112.114 53.8278 111.878 53.9298C111.437 54.1339 111.109 54.44 110.904 54.8482C110.669 55.287 110.648 55.685 110.853 56.0217C110.955 56.2258 111.14 56.4095 111.417 56.583C111.55 56.685 111.776 56.8176 112.083 56.9911C112.903 57.6339 113.179 58.4707 112.903 59.4912L107.164 57.7564C106.067 57.4196 105.216 57.2258 104.601 57.1952C103.915 57.1952 103.443 57.2769 103.166 57.4503C102.889 57.583 102.623 57.8381 102.346 58.2156C102.213 58.3891 101.988 58.6748 101.68 59.083C101.27 59.634 100.553 60.3788 99.5277 61.3278Z" fill="#FFC709"/>
<path fill-rule="evenodd" clip-rule="evenodd" d="M79.5929 54.6954C79.6954 54.8688 79.8696 54.9505 80.1053 54.9505C80.6178 55.0831 81.0077 55.0322 81.2844 54.7975C81.3869 54.7261 81.4689 54.5934 81.5406 54.3893L81.7453 53.828C81.817 53.624 81.7659 53.4199 81.5917 53.2158C81.4584 53.0832 81.3045 52.9913 81.1302 52.9607C80.8945 52.8587 80.618 52.8076 80.3105 52.8076V52.9097L79.9006 52.9607C79.7264 53.0321 79.6136 53.1138 79.5418 53.2158L79.4908 53.675L79.3882 53.9811L79.4392 54.3893L79.5929 54.6954Z" fill="black"/>
<path fill-rule="evenodd" clip-rule="evenodd" d="M52.9968 34.1334C52.8636 33.6947 52.6893 33.3988 52.4844 33.2661C52.1051 33.062 51.6849 33.1641 51.2032 33.5722C50.5575 34.2151 50.1782 34.9498 50.0757 35.7661C50.045 36.0417 50.0039 36.409 49.9731 36.8886C49.9424 37.1233 49.8709 37.4498 49.7684 37.858C49.7377 38.1641 49.7888 38.6233 49.9221 39.2355C49.9938 40.1233 50.055 40.6642 50.1267 40.8682C50.26 41.4805 50.5679 41.8886 51.0496 42.0927C51.357 42.2253 51.6847 42.2253 52.0229 42.0927C52.3612 41.96 52.6174 41.7356 52.7916 41.4295C53.0991 41.0519 53.2839 40.4397 53.3556 39.5927C53.5606 37.6947 53.4375 35.8681 52.9968 34.1334Z" fill="black"/>
<path fill-rule="evenodd" clip-rule="evenodd" d="M60.2736 39.5414C60.6118 39.674 60.8681 39.7455 61.0423 39.7455C61.6265 39.7149 61.9439 39.2863 62.0157 38.47C62.0464 37.9291 61.8824 37.2658 61.5032 36.4801C60.8575 35.1536 59.8837 33.9495 58.5821 32.8576C57.8339 32.3474 57.25 32.174 56.84 32.3474C56.2558 32.5515 55.9688 33.0311 55.9688 33.776C55.9688 34.4903 56.3273 35.3373 57.0447 36.3271L58.48 38.3679C58.6542 38.7455 58.8588 39.0108 59.0946 39.1843C59.2278 39.2557 59.6177 39.3781 60.2736 39.5414Z" fill="black"/>
<path fill-rule="evenodd" clip-rule="evenodd" d="M86.5625 52.7574L86.6136 52.1452C86.6136 51.8697 86.5827 51.6656 86.511 51.5329C86.4085 51.2982 86.132 51.1043 85.6913 50.9717V51.0227C85.353 51.0941 85.0249 51.1962 84.7174 51.3289L84.2049 51.686C84.0717 51.8901 84.0002 52.0941 84.0002 52.2982C83.9285 52.5737 83.9696 52.8288 84.1028 53.0635C84.2053 53.2676 84.4099 53.4411 84.7174 53.5737C85.0556 53.6452 85.3326 53.6554 85.5376 53.6248C85.8758 53.6248 86.1215 53.5534 86.2548 53.4207C86.388 53.2881 86.4908 53.0635 86.5625 52.7574Z" fill="black"/>
</svg>
