<svg width="64" height="64" viewBox="0 0 64 64" fill="none" xmlns="http://www.w3.org/2000/svg">
<circle cx="32" cy="32" r="31" fill="#F3C3C3" stroke="#D73737" stroke-width="2"/>
<circle cx="32" cy="32" r="26.5" fill="white" stroke="#D73737"/>
<path d="M32 54C44.1503 54 54 44.1503 54 32C54 19.8497 44.1503 10 32 10" stroke="#F3C3C3" stroke-width="3"/>
<path d="M30.7763 36.18C30.5763 36.18 30.4063 36.11 30.2663 35.97C30.1263 35.83 30.0563 35.66 30.0563 35.46V21.72C30.0563 21.52 30.1263 21.35 30.2663 21.21C30.4063 21.07 30.5763 21 30.7763 21H33.2063C33.4263 21 33.5963 21.07 33.7163 21.21C33.8563 21.33 33.9263 21.5 33.9263 21.72V35.46C33.9263 35.66 33.8563 35.83 33.7163 35.97C33.5963 36.11 33.4263 36.18 33.2063 36.18H30.7763ZM30.5963 42C30.3963 42 30.2263 41.93 30.0863 41.79C29.9463 41.65 29.8763 41.48 29.8763 41.28V38.49C29.8763 38.27 29.9463 38.09 30.0863 37.95C30.2263 37.81 30.3963 37.74 30.5963 37.74H33.3863C33.6063 37.74 33.7863 37.81 33.9263 37.95C34.0663 38.09 34.1363 38.27 34.1363 38.49V41.28C34.1363 41.48 34.0663 41.65 33.9263 41.79C33.7863 41.93 33.6063 42 33.3863 42H30.5963Z" fill="#D73737"/>
</svg>
