<svg width="24" height="24" viewBox="0 0 24 24" fill="none" xmlns="http://www.w3.org/2000/svg">
  <path fill-rule="evenodd" clip-rule="evenodd"
    d="M0 12C0 5.37258 5.37258 0 12 0C18.6274 0 24 5.37258 24 12C24 18.6274 18.6274 24 12 24C5.37258 24 0 18.6274 0 12ZM1.63635 12C1.63635 17.7237 6.27631 22.3636 12 22.3636C14.7486 22.3636 17.3846 21.2718 19.3282 19.3282C21.2717 17.3846 22.3636 14.7486 22.3636 12C22.3636 6.27632 17.7237 1.63636 12 1.63636C6.27631 1.63636 1.63635 6.27632 1.63635 12ZM15.2291 7.59273C15.5486 7.27369 16.066 7.27369 16.3855 7.59273C16.6446 7.8908 16.6537 8.33139 16.4073 8.64L13.2818 11.9127L16.4073 15.1855C16.6204 15.3939 16.7032 15.7018 16.6235 15.9891C16.5438 16.2764 16.3141 16.4975 16.024 16.5664C15.734 16.6352 15.4294 16.5408 15.2291 16.32L12.1255 13.0909L8.74912 16.3636C8.54063 16.5767 8.23273 16.6596 7.94547 16.5798C7.6582 16.5001 7.43703 16.2704 7.3682 15.9804C7.29936 15.6903 7.39375 15.3858 7.61457 15.1855L10.9691 11.9564L7.61457 8.72727C7.39375 8.52697 7.29936 8.22242 7.3682 7.93235C7.43703 7.64228 7.6582 7.41261 7.94547 7.33288C8.23273 7.25315 8.54063 7.33599 8.74912 7.54909L12.1255 10.8218L15.2291 7.59273Z"
    fill="currentColor" />
</svg>
