<svg width="16" height="16" viewBox="0 0 16 16" fill="none" xmlns="http://www.w3.org/2000/svg">
<circle cx="8" cy="8" r="8" fill="#EDEDED"/>
<path d="M7.42094 9.092C7.37294 9.092 7.33094 9.077 7.29494 9.047C7.25894 9.011 7.24094 8.969 7.24094 8.921C7.24094 8.885 7.24094 8.852 7.24094 8.822C7.24094 8.786 7.24094 8.75 7.24094 8.714C7.27694 8.504 7.34594 8.315 7.44794 8.147C7.55594 7.973 7.67894 7.814 7.81694 7.67C7.96094 7.526 8.09894 7.391 8.23094 7.265C8.36294 7.139 8.47394 7.016 8.56394 6.896C8.65994 6.77 8.71094 6.644 8.71694 6.518C8.72894 6.386 8.70194 6.275 8.63594 6.185C8.57594 6.095 8.48894 6.026 8.37494 5.978C8.26694 5.93 8.14994 5.906 8.02394 5.906C7.78394 5.906 7.59494 5.963 7.45694 6.077C7.31894 6.191 7.21994 6.359 7.15994 6.581C7.13594 6.647 7.10294 6.701 7.06094 6.743C7.01894 6.779 6.95894 6.797 6.88094 6.797H5.78294C5.72294 6.797 5.67194 6.776 5.62994 6.734C5.58794 6.686 5.56694 6.626 5.56694 6.554C5.57294 6.314 5.62994 6.08 5.73794 5.852C5.85194 5.624 6.01394 5.417 6.22394 5.231C6.43994 5.039 6.70694 4.889 7.02494 4.781C7.34294 4.667 7.70894 4.61 8.12294 4.61C8.57294 4.61 8.94794 4.664 9.24794 4.772C9.54794 4.88 9.78194 5.021 9.94994 5.195C10.1239 5.369 10.2469 5.555 10.3189 5.753C10.3909 5.945 10.4209 6.125 10.4089 6.293C10.4029 6.509 10.3609 6.704 10.2829 6.878C10.2049 7.052 10.1059 7.214 9.98594 7.364C9.87194 7.508 9.74894 7.649 9.61694 7.787C9.49094 7.919 9.37394 8.054 9.26594 8.192C9.15794 8.324 9.07694 8.465 9.02294 8.615C9.01094 8.657 8.99894 8.699 8.98694 8.741C8.97494 8.777 8.96594 8.816 8.95994 8.858C8.91794 8.936 8.87894 8.996 8.84294 9.038C8.80694 9.074 8.75294 9.092 8.68094 9.092H7.42094ZM7.43894 11C7.37294 11 7.31894 10.979 7.27694 10.937C7.23494 10.895 7.21394 10.841 7.21394 10.775V9.749C7.21394 9.689 7.23494 9.638 7.27694 9.596C7.31894 9.548 7.37294 9.524 7.43894 9.524H8.59094C8.65694 9.524 8.71094 9.548 8.75294 9.596C8.80094 9.638 8.82494 9.689 8.82494 9.749V10.775C8.82494 10.841 8.80094 10.895 8.75294 10.937C8.71094 10.979 8.65694 11 8.59094 11H7.43894Z" fill="#999999"/>
</svg>
